<?xml version="1.0" encoding="utf-8" standalone="no"?>
<!DOCTYPE svg PUBLIC "-//W3C//DTD SVG 1.1//EN"
  "http://www.w3.org/Graphics/SVG/1.1/DTD/svg11.dtd">
<svg xmlns:xlink="http://www.w3.org/1999/xlink" width="332.943307pt" height="178.100787pt" viewBox="0 0 332.943307 178.100787" xmlns="http://www.w3.org/2000/svg" version="1.1">
 <metadata>
  <rdf:RDF xmlns:dc="http://purl.org/dc/elements/1.1/" xmlns:cc="http://creativecommons.org/ns#" xmlns:rdf="http://www.w3.org/1999/02/22-rdf-syntax-ns#">
   <cc:Work>
    <dc:type rdf:resource="http://purl.org/dc/dcmitype/StillImage"/>
    <dc:date>2026-05-03T14:59:08.713006</dc:date>
    <dc:format>image/svg+xml</dc:format>
    <dc:creator>
     <cc:Agent>
      <dc:title>Matplotlib v3.7.5, https://matplotlib.org/</dc:title>
     </cc:Agent>
    </dc:creator>
   </cc:Work>
  </rdf:RDF>
 </metadata>
 <defs>
  <style type="text/css">*{stroke-linejoin: round; stroke-linecap: butt}</style>
 </defs>
 <g id="figure_1">
  <g id="patch_1">
   <path d="M 0 178.100787 
L 332.943307 178.100787 
L 332.943307 0 
L 0 0 
z
" style="fill: #ffffff"/>
  </g>
  <g id="axes_1">
   <g id="patch_2">
    <path d="M 7.2 170.900787 
L 325.743307 170.900787 
L 325.743307 7.2 
L 7.2 7.2 
z
" style="fill: #ffffff"/>
   </g>
   <g id="patch_3">
    <path d="M 35.868898 129.648189 
C 37.389514 129.648189 38.848054 129.337715 39.923292 128.785146 
C 40.99853 128.232576 41.602677 127.483026 41.602677 126.701575 
C 41.602677 125.920124 40.99853 125.170573 39.923292 124.618004 
C 38.848054 124.065434 37.389514 123.754961 35.868898 123.754961 
C 34.348282 123.754961 32.889741 124.065434 31.814503 124.618004 
C 30.739265 125.170573 30.135118 125.920124 30.135118 126.701575 
C 30.135118 127.483026 30.739265 128.232576 31.814503 128.785146 
C 32.889741 129.337715 34.348282 129.648189 35.868898 129.648189 
z
" clip-path="url(#p321fe9aedc)" style="fill: #b4c0e4; stroke: #ffffff; stroke-width: 0.5; stroke-linejoin: miter"/>
   </g>
   <g id="patch_4">
    <path d="M 35.868898 116.552126 
C 37.389514 116.552126 38.848054 116.241652 39.923292 115.689083 
C 40.99853 115.136513 41.602677 114.386963 41.602677 113.605512 
C 41.602677 112.824061 40.99853 112.07451 39.923292 111.521941 
C 38.848054 110.969371 37.389514 110.658898 35.868898 110.658898 
C 34.348282 110.658898 32.889741 110.969371 31.814503 111.521941 
C 30.739265 112.07451 30.135118 112.824061 30.135118 113.605512 
C 30.135118 114.386963 30.739265 115.136513 31.814503 115.689083 
C 32.889741 116.241652 34.348282 116.552126 35.868898 116.552126 
z
" clip-path="url(#p321fe9aedc)" style="fill: #b4c0e4; stroke: #ffffff; stroke-width: 0.5; stroke-linejoin: miter"/>
   </g>
   <g id="patch_5">
    <path d="M 35.868898 103.456063 
C 37.389514 103.456063 38.848054 103.145589 39.923292 102.59302 
C 40.99853 102.04045 41.602677 101.2909 41.602677 100.509449 
C 41.602677 99.727998 40.99853 98.978447 39.923292 98.425878 
C 38.848054 97.873309 37.389514 97.562835 35.868898 97.562835 
C 34.348282 97.562835 32.889741 97.873309 31.814503 98.425878 
C 30.739265 98.978447 30.135118 99.727998 30.135118 100.509449 
C 30.135118 101.2909 30.739265 102.04045 31.814503 102.59302 
C 32.889741 103.145589 34.348282 103.456063 35.868898 103.456063 
z
" clip-path="url(#p321fe9aedc)" style="fill: #b4c0e4; stroke: #ffffff; stroke-width: 0.5; stroke-linejoin: miter"/>
   </g>
   <g id="patch_6">
    <path d="M 35.868898 90.36 
C 37.389514 90.36 38.848054 90.049526 39.923292 89.496957 
C 40.99853 88.944387 41.602677 88.194837 41.602677 87.413386 
C 41.602677 86.631935 40.99853 85.882384 39.923292 85.329815 
C 38.848054 84.777246 37.389514 84.466772 35.868898 84.466772 
C 34.348282 84.466772 32.889741 84.777246 31.814503 85.329815 
C 30.739265 85.882384 30.135118 86.631935 30.135118 87.413386 
C 30.135118 88.194837 30.739265 88.944387 31.814503 89.496957 
C 32.889741 90.049526 34.348282 90.36 35.868898 90.36 
z
" clip-path="url(#p321fe9aedc)" style="fill: #b4c0e4; stroke: #ffffff; stroke-width: 0.5; stroke-linejoin: miter"/>
   </g>
   <g id="patch_7">
    <path d="M 74.094094 129.648189 
C 75.614711 129.648189 77.073251 129.337715 78.148489 128.785146 
C 79.223727 128.232576 79.827874 127.483026 79.827874 126.701575 
C 79.827874 125.920124 79.223727 125.170573 78.148489 124.618004 
C 77.073251 124.065434 75.614711 123.754961 74.094094 123.754961 
C 72.573478 123.754961 71.114938 124.065434 70.0397 124.618004 
C 68.964462 125.170573 68.360315 125.920124 68.360315 126.701575 
C 68.360315 127.483026 68.964462 128.232576 70.0397 128.785146 
C 71.114938 129.337715 72.573478 129.648189 74.094094 129.648189 
z
" clip-path="url(#p321fe9aedc)" style="fill: #b4c0e4; stroke: #ffffff; stroke-width: 0.5; stroke-linejoin: miter"/>
   </g>
   <g id="patch_8">
    <path d="M 74.094094 116.552126 
C 75.614711 116.552126 77.073251 116.241652 78.148489 115.689083 
C 79.223727 115.136513 79.827874 114.386963 79.827874 113.605512 
C 79.827874 112.824061 79.223727 112.07451 78.148489 111.521941 
C 77.073251 110.969371 75.614711 110.658898 74.094094 110.658898 
C 72.573478 110.658898 71.114938 110.969371 70.0397 111.521941 
C 68.964462 112.07451 68.360315 112.824061 68.360315 113.605512 
C 68.360315 114.386963 68.964462 115.136513 70.0397 115.689083 
C 71.114938 116.241652 72.573478 116.552126 74.094094 116.552126 
z
" clip-path="url(#p321fe9aedc)" style="fill: #b4c0e4; stroke: #ffffff; stroke-width: 0.5; stroke-linejoin: miter"/>
   </g>
   <g id="patch_9">
    <path d="M 74.094094 103.456063 
C 75.614711 103.456063 77.073251 103.145589 78.148489 102.59302 
C 79.223727 102.04045 79.827874 101.2909 79.827874 100.509449 
C 79.827874 99.727998 79.223727 98.978447 78.148489 98.425878 
C 77.073251 97.873309 75.614711 97.562835 74.094094 97.562835 
C 72.573478 97.562835 71.114938 97.873309 70.0397 98.425878 
C 68.964462 98.978447 68.360315 99.727998 68.360315 100.509449 
C 68.360315 101.2909 68.964462 102.04045 70.0397 102.59302 
C 71.114938 103.145589 72.573478 103.456063 74.094094 103.456063 
z
" clip-path="url(#p321fe9aedc)" style="fill: #b4c0e4; stroke: #ffffff; stroke-width: 0.5; stroke-linejoin: miter"/>
   </g>
   <g id="patch_10">
    <path d="M 74.094094 90.36 
C 75.614711 90.36 77.073251 90.049526 78.148489 89.496957 
C 79.223727 88.944387 79.827874 88.194837 79.827874 87.413386 
C 79.827874 86.631935 79.223727 85.882384 78.148489 85.329815 
C 77.073251 84.777246 75.614711 84.466772 74.094094 84.466772 
C 72.573478 84.466772 71.114938 84.777246 70.0397 85.329815 
C 68.964462 85.882384 68.360315 86.631935 68.360315 87.413386 
C 68.360315 88.194837 68.964462 88.944387 70.0397 89.496957 
C 71.114938 90.049526 72.573478 90.36 74.094094 90.36 
z
" clip-path="url(#p321fe9aedc)" style="fill: #b4c0e4; stroke: #ffffff; stroke-width: 0.5; stroke-linejoin: miter"/>
   </g>
   <g id="patch_11">
    <path d="M 112.319291 129.648189 
C 113.839907 129.648189 115.298448 129.337715 116.373686 128.785146 
C 117.448924 128.232576 118.053071 127.483026 118.053071 126.701575 
C 118.053071 125.920124 117.448924 125.170573 116.373686 124.618004 
C 115.298448 124.065434 113.839907 123.754961 112.319291 123.754961 
C 110.798675 123.754961 109.340135 124.065434 108.264897 124.618004 
C 107.189659 125.170573 106.585512 125.920124 106.585512 126.701575 
C 106.585512 127.483026 107.189659 128.232576 108.264897 128.785146 
C 109.340135 129.337715 110.798675 129.648189 112.319291 129.648189 
z
" clip-path="url(#p321fe9aedc)" style="fill: #b4c0e4; stroke: #ffffff; stroke-width: 0.5; stroke-linejoin: miter"/>
   </g>
   <g id="patch_12">
    <path d="M 112.319291 116.552126 
C 113.839907 116.552126 115.298448 116.241652 116.373686 115.689083 
C 117.448924 115.136513 118.053071 114.386963 118.053071 113.605512 
C 118.053071 112.824061 117.448924 112.07451 116.373686 111.521941 
C 115.298448 110.969371 113.839907 110.658898 112.319291 110.658898 
C 110.798675 110.658898 109.340135 110.969371 108.264897 111.521941 
C 107.189659 112.07451 106.585512 112.824061 106.585512 113.605512 
C 106.585512 114.386963 107.189659 115.136513 108.264897 115.689083 
C 109.340135 116.241652 110.798675 116.552126 112.319291 116.552126 
z
" clip-path="url(#p321fe9aedc)" style="fill: #b4c0e4; stroke: #ffffff; stroke-width: 0.5; stroke-linejoin: miter"/>
   </g>
   <g id="patch_13">
    <path d="M 112.319291 103.456063 
C 113.839907 103.456063 115.298448 103.145589 116.373686 102.59302 
C 117.448924 102.04045 118.053071 101.2909 118.053071 100.509449 
C 118.053071 99.727998 117.448924 98.978447 116.373686 98.425878 
C 115.298448 97.873309 113.839907 97.562835 112.319291 97.562835 
C 110.798675 97.562835 109.340135 97.873309 108.264897 98.425878 
C 107.189659 98.978447 106.585512 99.727998 106.585512 100.509449 
C 106.585512 101.2909 107.189659 102.04045 108.264897 102.59302 
C 109.340135 103.145589 110.798675 103.456063 112.319291 103.456063 
z
" clip-path="url(#p321fe9aedc)" style="fill: #b4c0e4; stroke: #ffffff; stroke-width: 0.5; stroke-linejoin: miter"/>
   </g>
   <g id="patch_14">
    <path d="M 112.319291 90.36 
C 113.839907 90.36 115.298448 90.049526 116.373686 89.496957 
C 117.448924 88.944387 118.053071 88.194837 118.053071 87.413386 
C 118.053071 86.631935 117.448924 85.882384 116.373686 85.329815 
C 115.298448 84.777246 113.839907 84.466772 112.319291 84.466772 
C 110.798675 84.466772 109.340135 84.777246 108.264897 85.329815 
C 107.189659 85.882384 106.585512 86.631935 106.585512 87.413386 
C 106.585512 88.194837 107.189659 88.944387 108.264897 89.496957 
C 109.340135 90.049526 110.798675 90.36 112.319291 90.36 
z
" clip-path="url(#p321fe9aedc)" style="fill: #b4c0e4; stroke: #ffffff; stroke-width: 0.5; stroke-linejoin: miter"/>
   </g>
   <g id="patch_15">
    <path d="M 150.544488 129.648189 
C 152.065104 129.648189 153.523645 129.337715 154.598883 128.785146 
C 155.674121 128.232576 156.278268 127.483026 156.278268 126.701575 
C 156.278268 125.920124 155.674121 125.170573 154.598883 124.618004 
C 153.523645 124.065434 152.065104 123.754961 150.544488 123.754961 
C 149.023872 123.754961 147.565332 124.065434 146.490094 124.618004 
C 145.414856 125.170573 144.810709 125.920124 144.810709 126.701575 
C 144.810709 127.483026 145.414856 128.232576 146.490094 128.785146 
C 147.565332 129.337715 149.023872 129.648189 150.544488 129.648189 
z
" clip-path="url(#p321fe9aedc)" style="fill: #b4c0e4; stroke: #ffffff; stroke-width: 0.5; stroke-linejoin: miter"/>
   </g>
   <g id="patch_16">
    <path d="M 150.544488 116.552126 
C 152.065104 116.552126 153.523645 116.241652 154.598883 115.689083 
C 155.674121 115.136513 156.278268 114.386963 156.278268 113.605512 
C 156.278268 112.824061 155.674121 112.07451 154.598883 111.521941 
C 153.523645 110.969371 152.065104 110.658898 150.544488 110.658898 
C 149.023872 110.658898 147.565332 110.969371 146.490094 111.521941 
C 145.414856 112.07451 144.810709 112.824061 144.810709 113.605512 
C 144.810709 114.386963 145.414856 115.136513 146.490094 115.689083 
C 147.565332 116.241652 149.023872 116.552126 150.544488 116.552126 
z
" clip-path="url(#p321fe9aedc)" style="fill: #b4c0e4; stroke: #ffffff; stroke-width: 0.5; stroke-linejoin: miter"/>
   </g>
   <g id="patch_17">
    <path d="M 150.544488 103.456063 
C 152.065104 103.456063 153.523645 103.145589 154.598883 102.59302 
C 155.674121 102.04045 156.278268 101.2909 156.278268 100.509449 
C 156.278268 99.727998 155.674121 98.978447 154.598883 98.425878 
C 153.523645 97.873309 152.065104 97.562835 150.544488 97.562835 
C 149.023872 97.562835 147.565332 97.873309 146.490094 98.425878 
C 145.414856 98.978447 144.810709 99.727998 144.810709 100.509449 
C 144.810709 101.2909 145.414856 102.04045 146.490094 102.59302 
C 147.565332 103.145589 149.023872 103.456063 150.544488 103.456063 
z
" clip-path="url(#p321fe9aedc)" style="fill: #b4c0e4; stroke: #ffffff; stroke-width: 0.5; stroke-linejoin: miter"/>
   </g>
   <g id="patch_18">
    <path d="M 150.544488 90.36 
C 152.065104 90.36 153.523645 90.049526 154.598883 89.496957 
C 155.674121 88.944387 156.278268 88.194837 156.278268 87.413386 
C 156.278268 86.631935 155.674121 85.882384 154.598883 85.329815 
C 153.523645 84.777246 152.065104 84.466772 150.544488 84.466772 
C 149.023872 84.466772 147.565332 84.777246 146.490094 85.329815 
C 145.414856 85.882384 144.810709 86.631935 144.810709 87.413386 
C 144.810709 88.194837 145.414856 88.944387 146.490094 89.496957 
C 147.565332 90.049526 149.023872 90.36 150.544488 90.36 
z
" clip-path="url(#p321fe9aedc)" style="fill: #b4c0e4; stroke: #ffffff; stroke-width: 0.5; stroke-linejoin: miter"/>
   </g>
   <g id="patch_19">
    <path d="M 34.594724 71.370709 
L 158.189528 71.370709 
Q 163.923307 71.370709 163.923307 68.424094 
L 163.923307 50.744409 
Q 163.923307 47.797795 158.189528 47.797795 
L 34.594724 47.797795 
Q 28.860945 47.797795 28.860945 50.744409 
L 28.860945 68.424094 
Q 28.860945 71.370709 34.594724 71.370709 
z
" clip-path="url(#p321fe9aedc)" style="fill: #b4c0e4; stroke: #ffffff; stroke-width: 0.8; stroke-linejoin: miter"/>
   </g>
   <g id="patch_20">
    <path d="M 190.680945 71.370709 
L 244.19622 71.370709 
Q 249.93 71.370709 249.93 68.424094 
L 249.93 50.744409 
Q 249.93 47.797795 244.19622 47.797795 
L 190.680945 47.797795 
Q 184.947165 47.797795 184.947165 50.744409 
L 184.947165 68.424094 
Q 184.947165 71.370709 190.680945 71.370709 
z
" clip-path="url(#p321fe9aedc)" style="fill: #77d7d1; stroke: #ffffff; stroke-width: 0.8; stroke-linejoin: miter"/>
   </g>
   <g id="patch_21">
    <path d="M 117.415984 105.747874 
L 177.302126 105.747874 
Q 183.035906 105.747874 183.035906 102.80126 
L 183.035906 85.121575 
Q 183.035906 82.174961 177.302126 82.174961 
L 117.415984 82.174961 
Q 111.682205 82.174961 111.682205 85.121575 
L 111.682205 102.80126 
Q 111.682205 105.747874 117.415984 105.747874 
z
" clip-path="url(#p321fe9aedc)" style="fill: #d8d8f0; stroke: #ffffff; stroke-width: 0.8; stroke-linejoin: miter"/>
   </g>
   <g id="patch_22">
    <path d="M 203.422677 105.747874 
L 263.308819 105.747874 
Q 269.042598 105.747874 269.042598 102.80126 
L 269.042598 85.121575 
Q 269.042598 82.174961 263.308819 82.174961 
L 203.422677 82.174961 
Q 197.688898 82.174961 197.688898 85.121575 
L 197.688898 102.80126 
Q 197.688898 105.747874 203.422677 105.747874 
z
" clip-path="url(#p321fe9aedc)" style="fill: #f0e0d0; stroke: #ffffff; stroke-width: 0.8; stroke-linejoin: miter"/>
   </g>
   <g id="patch_23">
    <path d="M 241.647874 140.125039 
L 301.534016 140.125039 
Q 307.267795 140.125039 307.267795 137.178425 
L 307.267795 119.49874 
Q 307.267795 116.552126 301.534016 116.552126 
L 241.647874 116.552126 
Q 235.914094 116.552126 235.914094 119.49874 
L 235.914094 137.178425 
Q 235.914094 140.125039 241.647874 140.125039 
z
" clip-path="url(#p321fe9aedc)" style="fill: #e9a6a1; stroke: #ffffff; stroke-width: 0.8; stroke-linejoin: miter"/>
   </g>
   <g id="patch_24">
    <path d="M 104.627124 70.124788 
Q 121.87333 76.771963 138.076308 83.017049 
" clip-path="url(#p321fe9aedc)" style="fill: none; stroke: #4d4d4d; stroke-linecap: round"/>
    <path d="M 135.665839 80.373256 
L 138.076308 83.017049 
L 134.514992 83.359148 
z
" clip-path="url(#p321fe9aedc)" style="fill: #4d4d4d; stroke: #4d4d4d; stroke-linecap: round"/>
   </g>
   <g id="patch_25">
    <path d="M 209.148369 69.961127 
Q 185.584035 76.772897 163.093761 83.274188 
" clip-path="url(#p321fe9aedc)" style="fill: none; stroke: #4d4d4d; stroke-linecap: round"/>
    <path d="M 166.612219 83.922611 
L 163.093761 83.274188 
L 165.723575 80.848476 
z
" clip-path="url(#p321fe9aedc)" style="fill: #4d4d4d; stroke: #4d4d4d; stroke-linecap: round"/>
   </g>
   <g id="patch_26">
    <path d="M 181.214003 93.961417 
Q 190.364192 93.961417 198.396348 93.961417 
" clip-path="url(#p321fe9aedc)" style="fill: none; stroke: #4d4d4d; stroke-linecap: round"/>
    <path d="M 195.196348 92.361417 
L 198.396348 93.961417 
L 195.196348 95.561417 
z
" clip-path="url(#p321fe9aedc)" style="fill: #4d4d4d; stroke: #4d4d4d; stroke-linecap: round"/>
   </g>
   <g id="patch_27">
    <path d="M 235.181663 104.62335 
Q 249.293338 111.150196 262.390261 117.207705 
" clip-path="url(#p321fe9aedc)" style="fill: none; stroke: #4d4d4d; stroke-linecap: round"/>
    <path d="M 260.15753 114.412188 
L 262.390261 117.207705 
L 258.814209 117.31658 
z
" clip-path="url(#p321fe9aedc)" style="fill: #4d4d4d; stroke: #4d4d4d; stroke-linecap: round"/>
   </g>
   <g id="matplotlib.axis_1"/>
   <g id="matplotlib.axis_2"/>
   <g id="line2d_1">
    <path d="M 35.868898 126.701575 
L 35.868898 113.605512 
" clip-path="url(#p321fe9aedc)" style="fill: none; stroke: #8f8f8f; stroke-width: 0.5; stroke-linecap: square"/>
   </g>
   <g id="line2d_2">
    <path d="M 35.868898 113.605512 
L 35.868898 100.509449 
" clip-path="url(#p321fe9aedc)" style="fill: none; stroke: #8f8f8f; stroke-width: 0.5; stroke-linecap: square"/>
   </g>
   <g id="line2d_3">
    <path d="M 35.868898 100.509449 
L 35.868898 87.413386 
" clip-path="url(#p321fe9aedc)" style="fill: none; stroke: #8f8f8f; stroke-width: 0.5; stroke-linecap: square"/>
   </g>
   <g id="line2d_4">
    <path d="M 74.094094 126.701575 
L 74.094094 113.605512 
" clip-path="url(#p321fe9aedc)" style="fill: none; stroke: #8f8f8f; stroke-width: 0.5; stroke-linecap: square"/>
   </g>
   <g id="line2d_5">
    <path d="M 74.094094 113.605512 
L 74.094094 100.509449 
" clip-path="url(#p321fe9aedc)" style="fill: none; stroke: #8f8f8f; stroke-width: 0.5; stroke-linecap: square"/>
   </g>
   <g id="line2d_6">
    <path d="M 74.094094 100.509449 
L 74.094094 87.413386 
" clip-path="url(#p321fe9aedc)" style="fill: none; stroke: #8f8f8f; stroke-width: 0.5; stroke-linecap: square"/>
   </g>
   <g id="line2d_7">
    <path d="M 112.319291 126.701575 
L 112.319291 113.605512 
" clip-path="url(#p321fe9aedc)" style="fill: none; stroke: #8f8f8f; stroke-width: 0.5; stroke-linecap: square"/>
   </g>
   <g id="line2d_8">
    <path d="M 112.319291 113.605512 
L 112.319291 100.509449 
" clip-path="url(#p321fe9aedc)" style="fill: none; stroke: #8f8f8f; stroke-width: 0.5; stroke-linecap: square"/>
   </g>
   <g id="line2d_9">
    <path d="M 112.319291 100.509449 
L 112.319291 87.413386 
" clip-path="url(#p321fe9aedc)" style="fill: none; stroke: #8f8f8f; stroke-width: 0.5; stroke-linecap: square"/>
   </g>
   <g id="line2d_10">
    <path d="M 150.544488 126.701575 
L 150.544488 113.605512 
" clip-path="url(#p321fe9aedc)" style="fill: none; stroke: #8f8f8f; stroke-width: 0.5; stroke-linecap: square"/>
   </g>
   <g id="line2d_11">
    <path d="M 150.544488 113.605512 
L 150.544488 100.509449 
" clip-path="url(#p321fe9aedc)" style="fill: none; stroke: #8f8f8f; stroke-width: 0.5; stroke-linecap: square"/>
   </g>
   <g id="line2d_12">
    <path d="M 150.544488 100.509449 
L 150.544488 87.413386 
" clip-path="url(#p321fe9aedc)" style="fill: none; stroke: #8f8f8f; stroke-width: 0.5; stroke-linecap: square"/>
   </g>
   <g id="text_1">
    <text style="font: 700 11px 'Microsoft YaHei', 'SimHei', 'SimSun', 'Arial', 'DejaVu Sans', sans-serif; text-anchor: start" x="16.756299" y="25.815172" transform="rotate(-0 16.756299 25.815172)">T-GCN 时空预测模型结构</text>
   </g>
   <g id="text_2">
    <text style="fill: #4d4d4d; font: 7px 'Microsoft YaHei', 'SimHei', 'SimSun', 'Arial', 'DejaVu Sans', sans-serif; text-anchor: middle" x="35.868898" y="138.16063" transform="rotate(-0 35.868898 138.16063)">t-11</text>
   </g>
   <g id="text_3">
    <text style="fill: #4d4d4d; font: 7px 'Microsoft YaHei', 'SimHei', 'SimSun', 'Arial', 'DejaVu Sans', sans-serif; text-anchor: middle" x="74.094094" y="138.16063" transform="rotate(-0 74.094094 138.16063)">t-7</text>
   </g>
   <g id="text_4">
    <text style="fill: #4d4d4d; font: 7px 'Microsoft YaHei', 'SimHei', 'SimSun', 'Arial', 'DejaVu Sans', sans-serif; text-anchor: middle" x="112.319291" y="138.16063" transform="rotate(-0 112.319291 138.16063)">t-3</text>
   </g>
   <g id="text_5">
    <text style="fill: #4d4d4d; font: 7px 'Microsoft YaHei', 'SimHei', 'SimSun', 'Arial', 'DejaVu Sans', sans-serif; text-anchor: middle" x="150.544488" y="138.16063" transform="rotate(-0 150.544488 138.16063)">t</text>
   </g>
   <g id="text_6">
    <text style="fill: #272727; font: 7px 'Microsoft YaHei', 'SimHei', 'SimSun', 'Arial', 'DejaVu Sans', sans-serif" transform="translate(72.098845 57.144643)">历史速度序列 X</text>
    <text style="fill: #272727; font: 7px 'Microsoft YaHei', 'SimHei', 'SimSun', 'Arial', 'DejaVu Sans', sans-serif" transform="translate(78.287282 65.87933)">12个时间步</text>
   </g>
   <g id="text_7">
    <text style="fill: #272727; font: 7px 'Microsoft YaHei', 'SimHei', 'SimSun', 'Arial', 'DejaVu Sans', sans-serif; text-anchor: middle" x="217.438583" y="61.511986" transform="rotate(-0 217.438583 61.511986)">邻接矩阵 A</text>
   </g>
   <g id="text_8">
    <text style="fill: #272727; font: 7px 'Microsoft YaHei', 'SimHei', 'SimSun', 'Arial', 'DejaVu Sans', sans-serif" transform="translate(136.859055 91.521808)">图卷积</text>
    <text style="fill: #272727; font: 7px 'Microsoft YaHei', 'SimHei', 'SimSun', 'Arial', 'DejaVu Sans', sans-serif" transform="translate(133.359055 100.256495)">空间聚合</text>
   </g>
   <g id="text_9">
    <text style="fill: #272727; font: 7px 'Microsoft YaHei', 'SimHei', 'SimSun', 'Arial', 'DejaVu Sans', sans-serif" transform="translate(218.865357 91.521808)">GRU递归</text>
    <text style="fill: #272727; font: 7px 'Microsoft YaHei', 'SimHei', 'SimSun', 'Arial', 'DejaVu Sans', sans-serif" transform="translate(219.365748 100.256495)">时间建模</text>
   </g>
   <g id="text_10">
    <text style="fill: #272727; font: 7px 'Microsoft YaHei', 'SimHei', 'SimSun', 'Arial', 'DejaVu Sans', sans-serif" transform="translate(250.590945 125.898973)">未来速度预测</text>
    <text style="fill: #272727; font: 7px 'Microsoft YaHei', 'SimHei', 'SimSun', 'Arial', 'DejaVu Sans', sans-serif" transform="translate(246.791804 134.633661)">5 / 10 / 15 min</text>
   </g>
  </g>
 </g>
 <defs>
  <clipPath id="p321fe9aedc">
   <rect x="7.2" y="7.2" width="318.543307" height="163.700787"/>
  </clipPath>
 </defs>
</svg>
