<?xml version="1.0" encoding="utf-8" standalone="no"?>
<!DOCTYPE svg PUBLIC "-//W3C//DTD SVG 1.1//EN"
  "http://www.w3.org/Graphics/SVG/1.1/DTD/svg11.dtd">
<svg xmlns:xlink="http://www.w3.org/1999/xlink" width="409.833071pt" height="171.552756pt" viewBox="0 0 409.833071 171.552756" xmlns="http://www.w3.org/2000/svg" version="1.1">
 <metadata>
  <rdf:RDF xmlns:dc="http://purl.org/dc/elements/1.1/" xmlns:cc="http://creativecommons.org/ns#" xmlns:rdf="http://www.w3.org/1999/02/22-rdf-syntax-ns#">
   <cc:Work>
    <dc:type rdf:resource="http://purl.org/dc/dcmitype/StillImage"/>
    <dc:date>2026-05-03T14:59:09.028775</dc:date>
    <dc:format>image/svg+xml</dc:format>
    <dc:creator>
     <cc:Agent>
      <dc:title>Matplotlib v3.7.5, https://matplotlib.org/</dc:title>
     </cc:Agent>
    </dc:creator>
   </cc:Work>
  </rdf:RDF>
 </metadata>
 <defs>
  <style type="text/css">*{stroke-linejoin: round; stroke-linecap: butt}</style>
 </defs>
 <g id="figure_1">
  <g id="patch_1">
   <path d="M 0 171.552756 
L 409.833071 171.552756 
L 409.833071 0 
L 0 0 
z
" style="fill: #ffffff"/>
  </g>
  <g id="axes_1">
   <g id="patch_2">
    <path d="M 7.2 164.352756 
L 402.633071 164.352756 
L 402.633071 7.2 
L 7.2 7.2 
z
" style="fill: #ffffff"/>
   </g>
   <g id="patch_3">
    <path d="M 25.389921 65.660825 
L 91.822677 65.660825 
Q 98.940472 65.660825 98.940472 62.832076 
L 98.940472 39.573468 
Q 98.940472 36.744718 91.822677 36.744718 
L 25.389921 36.744718 
Q 18.272126 36.744718 18.272126 39.573468 
L 18.272126 62.832076 
Q 18.272126 65.660825 25.389921 65.660825 
z
" clip-path="url(#p85cb497a9e)" style="fill: #b4c0e4; stroke: #ffffff; stroke-width: 0.8; stroke-linejoin: miter"/>
   </g>
   <g id="patch_4">
    <path d="M 25.389921 112.806652 
L 91.822677 112.806652 
Q 98.940472 112.806652 98.940472 109.977902 
L 98.940472 86.719294 
Q 98.940472 83.890545 91.822677 83.890545 
L 25.389921 83.890545 
Q 18.272126 83.890545 18.272126 86.719294 
L 18.272126 109.977902 
Q 18.272126 112.806652 25.389921 112.806652 
z
" clip-path="url(#p85cb497a9e)" style="fill: #77d7d1; stroke: #ffffff; stroke-width: 0.8; stroke-linejoin: miter"/>
   </g>
   <g id="patch_5">
    <path d="M 147.974173 56.23166 
L 222.315591 56.23166 
Q 229.433386 56.23166 229.433386 53.40291 
L 229.433386 36.430413 
Q 229.433386 33.601663 222.315591 33.601663 
L 147.974173 33.601663 
Q 140.856378 33.601663 140.856378 36.430413 
L 140.856378 53.40291 
Q 140.856378 56.23166 147.974173 56.23166 
z
" clip-path="url(#p85cb497a9e)" style="fill: #f0e0d0; stroke: #ffffff; stroke-width: 0.8; stroke-linejoin: miter"/>
   </g>
   <g id="patch_6">
    <path d="M 147.974173 82.947628 
L 222.315591 82.947628 
Q 229.433386 82.947628 229.433386 80.118879 
L 229.433386 63.146381 
Q 229.433386 60.317631 222.315591 60.317631 
L 147.974173 60.317631 
Q 140.856378 60.317631 140.856378 63.146381 
L 140.856378 80.118879 
Q 140.856378 82.947628 147.974173 82.947628 
z
" clip-path="url(#p85cb497a9e)" style="fill: #d8d8f0; stroke: #ffffff; stroke-width: 0.8; stroke-linejoin: miter"/>
   </g>
   <g id="patch_7">
    <path d="M 147.974173 109.663597 
L 222.315591 109.663597 
Q 229.433386 109.663597 229.433386 106.834847 
L 229.433386 89.86235 
Q 229.433386 87.0336 222.315591 87.0336 
L 147.974173 87.0336 
Q 140.856378 87.0336 140.856378 89.86235 
L 140.856378 106.834847 
Q 140.856378 109.663597 147.974173 109.663597 
z
" clip-path="url(#p85cb497a9e)" style="fill: #b4c0e4; stroke: #ffffff; stroke-width: 0.8; stroke-linejoin: miter"/>
   </g>
   <g id="patch_8">
    <path d="M 147.974173 136.379565 
L 222.315591 136.379565 
Q 229.433386 136.379565 229.433386 133.550816 
L 229.433386 116.578318 
Q 229.433386 113.749569 222.315591 113.749569 
L 147.974173 113.749569 
Q 140.856378 113.749569 140.856378 116.578318 
L 140.856378 133.550816 
Q 140.856378 136.379565 147.974173 136.379565 
z
" clip-path="url(#p85cb497a9e)" style="fill: #77d7d1; stroke: #ffffff; stroke-width: 0.8; stroke-linejoin: miter"/>
   </g>
   <g id="patch_9">
    <path d="M 286.375748 59.374715 
L 368.625827 59.374715 
Q 375.743622 59.374715 375.743622 56.545965 
L 375.743622 38.00194 
Q 375.743622 35.173191 368.625827 35.173191 
L 286.375748 35.173191 
Q 279.257953 35.173191 279.257953 38.00194 
L 279.257953 56.545965 
Q 279.257953 59.374715 286.375748 59.374715 
z
" clip-path="url(#p85cb497a9e)" style="fill: #b4c0e4; stroke: #ffffff; stroke-width: 0.8; stroke-linejoin: miter"/>
   </g>
   <g id="patch_10">
    <path d="M 286.375748 92.376794 
L 368.625827 92.376794 
Q 375.743622 92.376794 375.743622 89.548044 
L 375.743622 71.004019 
Q 375.743622 68.175269 368.625827 68.175269 
L 286.375748 68.175269 
Q 279.257953 68.175269 279.257953 71.004019 
L 279.257953 89.548044 
Q 279.257953 92.376794 286.375748 92.376794 
z
" clip-path="url(#p85cb497a9e)" style="fill: #77d7d1; stroke: #ffffff; stroke-width: 0.8; stroke-linejoin: miter"/>
   </g>
   <g id="patch_11">
    <path d="M 286.375748 125.378872 
L 368.625827 125.378872 
Q 375.743622 125.378872 375.743622 122.550123 
L 375.743622 104.006098 
Q 375.743622 101.177348 368.625827 101.177348 
L 286.375748 101.177348 
Q 279.257953 101.177348 279.257953 104.006098 
L 279.257953 122.550123 
Q 279.257953 125.378872 286.375748 125.378872 
z
" clip-path="url(#p85cb497a9e)" style="fill: #e9a6a1; stroke: #ffffff; stroke-width: 0.8; stroke-linejoin: miter"/>
   </g>
   <g id="patch_12">
    <path d="M 96.193921 51.202772 
Q 119.898075 51.202772 142.484195 51.202772 
" clip-path="url(#p85cb497a9e)" style="fill: none; stroke: #4d4d4d; stroke-linecap: round"/>
    <path d="M 139.284195 49.602772 
L 142.484195 51.202772 
L 139.284195 52.802772 
z
" clip-path="url(#p85cb497a9e)" style="fill: #4d4d4d; stroke: #4d4d4d; stroke-linecap: round"/>
   </g>
   <g id="patch_13">
    <path d="M 96.193921 98.348598 
Q 119.898075 98.348598 142.484195 98.348598 
" clip-path="url(#p85cb497a9e)" style="fill: none; stroke: #4d4d4d; stroke-linecap: round"/>
    <path d="M 139.284195 96.748598 
L 142.484195 98.348598 
L 139.284195 99.948598 
z
" clip-path="url(#p85cb497a9e)" style="fill: #4d4d4d; stroke: #4d4d4d; stroke-linecap: round"/>
   </g>
   <g id="patch_14">
    <path d="M 226.652263 45.279666 
Q 254.108532 50.27883 280.885219 51.111179 
" clip-path="url(#p85cb497a9e)" style="fill: none; stroke: #4d4d4d; stroke-linecap: round"/>
    <path d="M 277.736476 49.412528 
L 280.885219 51.111179 
L 277.637052 52.610983 
z
" clip-path="url(#p85cb497a9e)" style="fill: #4d4d4d; stroke: #4d4d4d; stroke-linecap: round"/>
   </g>
   <g id="patch_15">
    <path d="M 226.682973 71.786846 
Q 254.347725 73.851166 280.897544 71.869747 
" clip-path="url(#p85cb497a9e)" style="fill: none; stroke: #4d4d4d; stroke-linecap: round"/>
    <path d="M 277.587341 70.512338 
L 280.897544 71.869747 
L 277.825495 73.703464 
z
" clip-path="url(#p85cb497a9e)" style="fill: #4d4d4d; stroke: #4d4d4d; stroke-linecap: round"/>
   </g>
   <g id="patch_16">
    <path d="M 226.682973 98.502814 
Q 254.347725 100.567134 280.897544 98.585715 
" clip-path="url(#p85cb497a9e)" style="fill: none; stroke: #4d4d4d; stroke-linecap: round"/>
    <path d="M 277.587341 97.228307 
L 280.897544 98.585715 
L 277.825495 100.419432 
z
" clip-path="url(#p85cb497a9e)" style="fill: #4d4d4d; stroke: #4d4d4d; stroke-linecap: round"/>
   </g>
   <g id="patch_17">
    <path d="M 226.67487 124.852837 
Q 254.754889 121.785602 280.986354 114.865221 
" clip-path="url(#p85cb497a9e)" style="fill: none; stroke: #4d4d4d; stroke-linecap: round"/>
    <path d="M 277.484073 114.134448 
L 280.986354 114.865221 
L 278.300367 117.228582 
z
" clip-path="url(#p85cb497a9e)" style="fill: #4d4d4d; stroke: #4d4d4d; stroke-linecap: round"/>
   </g>
   <g id="matplotlib.axis_1"/>
   <g id="matplotlib.axis_2"/>
   <g id="text_1">
    <text style="font: 700 11px 'Microsoft YaHei', 'SimHei', 'SimSun', 'Arial', 'DejaVu Sans', sans-serif; text-anchor: start" x="15.108661" y="23.850763" transform="rotate(-0 15.108661 23.850763)">数据处理与路网建模流程</text>
   </g>
   <g id="text_2">
    <text style="fill: #272727; font: 7px 'Microsoft YaHei', 'SimHei', 'SimSun', 'Arial', 'DejaVu Sans', sans-serif" transform="translate(34.070205 48.763162)">PeMS detector</text>
    <text style="fill: #272727; font: 7px 'Microsoft YaHei', 'SimHei', 'SimSun', 'Arial', 'DejaVu Sans', sans-serif" transform="translate(44.606299 57.49785)">速度序列</text>
   </g>
   <g id="text_3">
    <text style="fill: #272727; font: 7px 'Microsoft YaHei', 'SimHei', 'SimSun', 'Arial', 'DejaVu Sans', sans-serif" transform="translate(36.314034 95.908989)">OSM道路网络</text>
    <text style="fill: #272727; font: 7px 'Microsoft YaHei', 'SimHei', 'SimSun', 'Arial', 'DejaVu Sans', sans-serif" transform="translate(41.106299 104.643677)">几何与拓扑</text>
   </g>
   <g id="text_4">
    <text style="fill: #272727; font: 7px 'Microsoft YaHei', 'SimHei', 'SimSun', 'Arial', 'DejaVu Sans', sans-serif; text-anchor: middle" x="185.144882" y="46.844396" transform="rotate(-0 185.144882 46.844396)">缺失与异常处理</text>
   </g>
   <g id="text_5">
    <text style="fill: #272727; font: 7px 'Microsoft YaHei', 'SimHei', 'SimSun', 'Arial', 'DejaVu Sans', sans-serif; text-anchor: middle" x="185.144882" y="73.560364" transform="rotate(-0 185.144882 73.560364)">核心节点筛选</text>
   </g>
   <g id="text_6">
    <text style="fill: #272727; font: 7px 'Microsoft YaHei', 'SimHei', 'SimSun', 'Arial', 'DejaVu Sans', sans-serif; text-anchor: middle" x="185.144882" y="100.276333" transform="rotate(-0 185.144882 100.276333)">邻接矩阵构建</text>
   </g>
   <g id="text_7">
    <text style="fill: #272727; font: 7px 'Microsoft YaHei', 'SimHei', 'SimSun', 'Arial', 'DejaVu Sans', sans-serif; text-anchor: middle" x="185.144882" y="126.992301" transform="rotate(-0 185.144882 126.992301)">道路图生成</text>
   </g>
   <g id="text_8">
    <text style="fill: #272727; font: 7px 'Microsoft YaHei', 'SimHei', 'SimSun', 'Arial', 'DejaVu Sans', sans-serif; text-anchor: middle" x="327.500787" y="49.201687" transform="rotate(-0 327.500787 49.201687)">T-GCN输入张量</text>
   </g>
   <g id="text_9">
    <text style="fill: #272727; font: 7px 'Microsoft YaHei', 'SimHei', 'SimSun', 'Arial', 'DejaVu Sans', sans-serif; text-anchor: middle" x="327.500787" y="82.203766" transform="rotate(-0 327.500787 82.203766)">传感器-路段映射</text>
   </g>
   <g id="text_10">
    <text style="fill: #272727; font: 7px 'Microsoft YaHei', 'SimHei', 'SimSun', 'Arial', 'DejaVu Sans', sans-serif; text-anchor: middle" x="327.500787" y="115.205845" transform="rotate(-0 327.500787 115.205845)">动态路径规划输入</text>
   </g>
  </g>
 </g>
 <defs>
  <clipPath id="p85cb497a9e">
   <rect x="7.2" y="7.2" width="395.433071" height="157.152756"/>
  </clipPath>
 </defs>
</svg>
