<?xml version="1.0" encoding="utf-8" standalone="no"?>
<!DOCTYPE svg PUBLIC "-//W3C//DTD SVG 1.1//EN"
  "http://www.w3.org/Graphics/SVG/1.1/DTD/svg11.dtd">
<svg xmlns:xlink="http://www.w3.org/1999/xlink" width="343.927559pt" height="171.552756pt" viewBox="0 0 343.927559 171.552756" xmlns="http://www.w3.org/2000/svg" version="1.1">
 <metadata>
  <rdf:RDF xmlns:dc="http://purl.org/dc/elements/1.1/" xmlns:cc="http://creativecommons.org/ns#" xmlns:rdf="http://www.w3.org/1999/02/22-rdf-syntax-ns#">
   <cc:Work>
    <dc:type rdf:resource="http://purl.org/dc/dcmitype/StillImage"/>
    <dc:date>2026-05-03T14:59:10.345183</dc:date>
    <dc:format>image/svg+xml</dc:format>
    <dc:creator>
     <cc:Agent>
      <dc:title>Matplotlib v3.7.5, https://matplotlib.org/</dc:title>
     </cc:Agent>
    </dc:creator>
   </cc:Work>
  </rdf:RDF>
 </metadata>
 <defs>
  <style type="text/css">*{stroke-linejoin: round; stroke-linecap: butt}</style>
 </defs>
 <g id="figure_1">
  <g id="patch_1">
   <path d="M 0 171.552756 
L 343.927559 171.552756 
L 343.927559 0 
L 0 0 
z
" style="fill: #ffffff"/>
  </g>
  <g id="axes_1">
   <g id="patch_2">
    <path d="M 7.2 164.352756 
L 336.727559 164.352756 
L 336.727559 7.2 
L 7.2 7.2 
z
" style="fill: #ffffff"/>
   </g>
   <g id="patch_3">
    <path d="M 28.948819 76.661518 
L 77.718898 76.661518 
Q 83.650394 76.661518 83.650394 73.832769 
L 83.650394 56.860271 
Q 83.650394 54.031521 77.718898 54.031521 
L 28.948819 54.031521 
Q 23.017323 54.031521 23.017323 56.860271 
L 23.017323 73.832769 
Q 23.017323 76.661518 28.948819 76.661518 
z
" clip-path="url(#p8afbed20dd)" style="fill: #b4c0e4; stroke: #ffffff; stroke-width: 0.8; stroke-linejoin: miter"/>
   </g>
   <g id="patch_4">
    <path d="M 28.948819 119.092762 
L 77.718898 119.092762 
Q 83.650394 119.092762 83.650394 116.264013 
L 83.650394 99.291515 
Q 83.650394 96.462765 77.718898 96.462765 
L 28.948819 96.462765 
Q 23.017323 96.462765 23.017323 99.291515 
L 23.017323 116.264013 
Q 23.017323 119.092762 28.948819 119.092762 
z
" clip-path="url(#p8afbed20dd)" style="fill: #f6f6f6; stroke: #d8d8d8; stroke-width: 0.8; stroke-linejoin: miter"/>
   </g>
   <g id="patch_5">
    <path d="M 114.625984 60.946243 
L 166.691339 60.946243 
Q 172.622835 60.946243 172.622835 58.117493 
L 172.622835 42.716523 
Q 172.622835 39.887773 166.691339 39.887773 
L 114.625984 39.887773 
Q 108.694488 39.887773 108.694488 42.716523 
L 108.694488 58.117493 
Q 108.694488 60.946243 114.625984 60.946243 
z
" clip-path="url(#p8afbed20dd)" style="fill: #d8d8f0; stroke: #ffffff; stroke-width: 0.8; stroke-linejoin: miter"/>
   </g>
   <g id="patch_6">
    <path d="M 114.625984 92.376794 
L 166.691339 92.376794 
Q 172.622835 92.376794 172.622835 89.548044 
L 172.622835 74.147074 
Q 172.622835 71.318324 166.691339 71.318324 
L 114.625984 71.318324 
Q 108.694488 71.318324 108.694488 74.147074 
L 108.694488 89.548044 
Q 108.694488 92.376794 114.625984 92.376794 
z
" clip-path="url(#p8afbed20dd)" style="fill: #d8d8f0; stroke: #ffffff; stroke-width: 0.8; stroke-linejoin: miter"/>
   </g>
   <g id="patch_7">
    <path d="M 114.625984 123.807345 
L 166.691339 123.807345 
Q 172.622835 123.807345 172.622835 120.978595 
L 172.622835 105.577625 
Q 172.622835 102.748876 166.691339 102.748876 
L 114.625984 102.748876 
Q 108.694488 102.748876 108.694488 105.577625 
L 108.694488 120.978595 
Q 108.694488 123.807345 114.625984 123.807345 
z
" clip-path="url(#p8afbed20dd)" style="fill: #77d7d1; stroke: #ffffff; stroke-width: 0.8; stroke-linejoin: miter"/>
   </g>
   <g id="patch_8">
    <path d="M 213.484252 92.376794 
L 268.844882 92.376794 
Q 274.776378 92.376794 274.776378 89.548044 
L 274.776378 69.432491 
Q 274.776378 66.603742 268.844882 66.603742 
L 213.484252 66.603742 
Q 207.552756 66.603742 207.552756 69.432491 
L 207.552756 89.548044 
Q 207.552756 92.376794 213.484252 92.376794 
z
" clip-path="url(#p8afbed20dd)" style="fill: #f0e0d0; stroke: #ffffff; stroke-width: 0.8; stroke-linejoin: miter"/>
   </g>
   <g id="patch_9">
    <path d="M 279.389764 92.376794 
L 314.97874 92.376794 
Q 320.910236 92.376794 320.910236 89.548044 
L 320.910236 69.432491 
Q 320.910236 66.603742 314.97874 66.603742 
L 279.389764 66.603742 
Q 273.458268 66.603742 273.458268 69.432491 
L 273.458268 89.548044 
Q 273.458268 92.376794 279.389764 92.376794 
z
" clip-path="url(#p8afbed20dd)" style="fill: #e9a6a1; stroke: #ffffff; stroke-width: 0.8; stroke-linejoin: miter"/>
   </g>
   <g id="patch_10">
    <path d="M 81.53437 64.557495 
Q 96.174341 58.27383 109.786916 52.431137 
" clip-path="url(#p8afbed20dd)" style="fill: none; stroke: #4d4d4d; stroke-linecap: round"/>
    <path d="M 106.215267 52.222982 
L 109.786916 52.431137 
L 107.477402 55.163563 
z
" clip-path="url(#p8afbed20dd)" style="fill: #4d4d4d; stroke: #4d4d4d; stroke-linecap: round"/>
   </g>
   <g id="patch_11">
    <path d="M 80.426425 105.914017 
Q 91.91269 77.00594 110.691396 53.624908 
" clip-path="url(#p8afbed20dd)" style="fill: none; stroke: #4d4d4d; stroke-linecap: round"/>
    <path d="M 107.440103 55.117924 
L 110.691396 53.624908 
L 109.935033 57.121752 
z
" clip-path="url(#p8afbed20dd)" style="fill: #4d4d4d; stroke: #4d4d4d; stroke-linecap: round"/>
   </g>
   <g id="patch_12">
    <path d="M 170.339271 52.306025 
Q 190.087712 65.346464 208.903171 77.77083 
" clip-path="url(#p8afbed20dd)" style="fill: none; stroke: #4d4d4d; stroke-linecap: round"/>
    <path d="M 207.114475 74.672352 
L 208.903171 77.77083 
L 205.351171 77.3427 
z
" clip-path="url(#p8afbed20dd)" style="fill: #4d4d4d; stroke: #4d4d4d; stroke-linecap: round"/>
   </g>
   <g id="patch_13">
    <path d="M 81.470009 66.27712 
Q 96.174517 73.99101 109.888955 81.185516 
" clip-path="url(#p8afbed20dd)" style="fill: none; stroke: #4d4d4d; stroke-linecap: round"/>
    <path d="M 107.798491 78.282077 
L 109.888955 81.185516 
L 106.311925 81.115824 
z
" clip-path="url(#p8afbed20dd)" style="fill: #4d4d4d; stroke: #4d4d4d; stroke-linecap: round"/>
   </g>
   <g id="patch_14">
    <path d="M 81.084236 106.339818 
Q 94.341894 92.81033 109.91452 84.138759 
" clip-path="url(#p8afbed20dd)" style="fill: none; stroke: #4d4d4d; stroke-linecap: round"/>
    <path d="M 106.340343 84.29769 
L 109.91452 84.138759 
L 107.897158 87.093459 
z
" clip-path="url(#p8afbed20dd)" style="fill: #4d4d4d; stroke: #4d4d4d; stroke-linecap: round"/>
   </g>
   <g id="patch_15">
    <path d="M 170.663489 82.486951 
Q 190.085637 81.061954 208.392748 79.718766 
" clip-path="url(#p8afbed20dd)" style="fill: none; stroke: #4d4d4d; stroke-linecap: round"/>
    <path d="M 205.084249 78.357209 
L 208.392748 79.718766 
L 205.318403 81.54863 
z
" clip-path="url(#p8afbed20dd)" style="fill: #4d4d4d; stroke: #4d4d4d; stroke-linecap: round"/>
   </g>
   <g id="patch_16">
    <path d="M 80.816344 67.002743 
Q 96.172055 89.704626 110.901361 111.480432 
" clip-path="url(#p8afbed20dd)" style="fill: none; stroke: #4d4d4d; stroke-linecap: round"/>
    <path d="M 110.433779 107.93341 
L 110.901361 111.480432 
L 107.783194 109.726284 
z
" clip-path="url(#p8afbed20dd)" style="fill: #4d4d4d; stroke: #4d4d4d; stroke-linecap: round"/>
   </g>
   <g id="patch_17">
    <path d="M 81.69476 107.855858 
Q 96.620035 108.577157 109.704522 113.04011 
" clip-path="url(#p8afbed20dd)" style="fill: none; stroke: #4d4d4d; stroke-linecap: round"/>
    <path d="M 107.192374 110.492736 
L 109.704522 113.04011 
L 106.159334 113.521404 
z
" clip-path="url(#p8afbed20dd)" style="fill: #4d4d4d; stroke: #4d4d4d; stroke-linecap: round"/>
   </g>
   <g id="patch_18">
    <path d="M 170.224226 112.808302 
Q 190.088327 96.776642 209.082398 81.447154 
" clip-path="url(#p8afbed20dd)" style="fill: none; stroke: #4d4d4d; stroke-linecap: round"/>
    <path d="M 205.587357 82.211804 
L 209.082398 81.447154 
L 207.597093 84.701977 
z
" clip-path="url(#p8afbed20dd)" style="fill: #4d4d4d; stroke: #4d4d4d; stroke-linecap: round"/>
   </g>
   <g id="patch_19">
    <path d="M 272.820452 79.490268 
Q 274.11872 79.490268 274.298954 79.490268 
" clip-path="url(#p8afbed20dd)" style="fill: none; stroke: #4d4d4d; stroke-linecap: round"/>
    <path d="M 271.098954 77.890268 
L 274.298954 79.490268 
L 271.098954 81.090268 
z
" clip-path="url(#p8afbed20dd)" style="fill: #4d4d4d; stroke: #4d4d4d; stroke-linecap: round"/>
   </g>
   <g id="matplotlib.axis_1"/>
   <g id="matplotlib.axis_2"/>
   <g id="text_1">
    <text style="font: 700 11px 'Microsoft YaHei', 'SimHei', 'SimSun', 'Arial', 'DejaVu Sans', sans-serif; text-anchor: start" x="17.085827" y="25.42229" transform="rotate(-0 17.085827 25.42229)">T-GCN 单元结构</text>
   </g>
   <g id="text_2">
    <text style="fill: #272727; font: 7px 'Microsoft YaHei', 'SimHei', 'SimSun', 'Arial', 'DejaVu Sans', sans-serif" transform="translate(48.687061 62.859879)">x_t</text>
    <text style="fill: #272727; font: 7px 'Microsoft YaHei', 'SimHei', 'SimSun', 'Arial', 'DejaVu Sans', sans-serif" transform="translate(39.333858 71.641598)">当前速度</text>
   </g>
   <g id="text_3">
    <text style="fill: #272727; font: 7px 'Microsoft YaHei', 'SimHei', 'SimSun', 'Arial', 'DejaVu Sans', sans-serif" transform="translate(42.610733 105.314639)">h_{t-1}</text>
    <text style="fill: #272727; font: 7px 'Microsoft YaHei', 'SimHei', 'SimSun', 'Arial', 'DejaVu Sans', sans-serif" transform="translate(39.333858 114.096358)">历史状态</text>
   </g>
   <g id="text_4">
    <text style="fill: #272727; font: 7px 'Microsoft YaHei', 'SimHei', 'SimSun', 'Arial', 'DejaVu Sans', sans-serif" transform="translate(124.52913 48.083492)">更新门 z_t</text>
    <text style="fill: #272727; font: 7px 'Microsoft YaHei', 'SimHei', 'SimSun', 'Arial', 'DejaVu Sans', sans-serif" transform="translate(132.869521 56.865211)">GCN</text>
   </g>
   <g id="text_5">
    <text style="fill: #272727; font: 7px 'Microsoft YaHei', 'SimHei', 'SimSun', 'Arial', 'DejaVu Sans', sans-serif" transform="translate(124.913583 79.510762)">重置门 r_t</text>
    <text style="fill: #272727; font: 7px 'Microsoft YaHei', 'SimHei', 'SimSun', 'Arial', 'DejaVu Sans', sans-serif" transform="translate(132.869521 88.292481)">GCN</text>
   </g>
   <g id="text_6">
    <text style="fill: #272727; font: 7px 'Microsoft YaHei', 'SimHei', 'SimSun', 'Arial', 'DejaVu Sans', sans-serif" transform="translate(117.998896 110.930923)">候选状态 h~_t</text>
    <text style="fill: #272727; font: 7px 'Microsoft YaHei', 'SimHei', 'SimSun', 'Arial', 'DejaVu Sans', sans-serif" transform="translate(132.869521 119.712641)">GCN</text>
   </g>
   <g id="text_7">
    <text style="fill: #272727; font: 7px 'Microsoft YaHei', 'SimHei', 'SimSun', 'Arial', 'DejaVu Sans', sans-serif" transform="translate(227.164567 77.027143)">门控融合</text>
    <text style="fill: #272727; font: 7px 'Microsoft YaHei', 'SimHei', 'SimSun', 'Arial', 'DejaVu Sans', sans-serif" transform="translate(236.136598 85.76183)">h_t</text>
   </g>
   <g id="text_8">
    <text style="fill: #272727; font: 7px 'Microsoft YaHei', 'SimHei', 'SimSun', 'Arial', 'DejaVu Sans', sans-serif" transform="translate(290.184252 77.027143)">输出</text>
    <text style="fill: #272727; font: 7px 'Microsoft YaHei', 'SimHei', 'SimSun', 'Arial', 'DejaVu Sans', sans-serif" transform="translate(292.458705 85.76183)">y_t</text>
   </g>
  </g>
 </g>
 <defs>
  <clipPath id="p8afbed20dd">
   <rect x="7.2" y="7.2" width="329.527559" height="157.152756"/>
  </clipPath>
 </defs>
</svg>
