<?xml version="1.0" encoding="utf-8" standalone="no"?>
<!DOCTYPE svg PUBLIC "-//W3C//DTD SVG 1.1//EN"
  "http://www.w3.org/Graphics/SVG/1.1/DTD/svg11.dtd">
<svg xmlns:xlink="http://www.w3.org/1999/xlink" width="297.730295pt" height="205.521896pt" viewBox="0 0 297.730295 205.521896" xmlns="http://www.w3.org/2000/svg" version="1.1">
 <metadata>
  <rdf:RDF xmlns:dc="http://purl.org/dc/elements/1.1/" xmlns:cc="http://creativecommons.org/ns#" xmlns:rdf="http://www.w3.org/1999/02/22-rdf-syntax-ns#">
   <cc:Work>
    <dc:type rdf:resource="http://purl.org/dc/dcmitype/StillImage"/>
    <dc:date>2026-05-03T14:59:13.540772</dc:date>
    <dc:format>image/svg+xml</dc:format>
    <dc:creator>
     <cc:Agent>
      <dc:title>Matplotlib v3.7.5, https://matplotlib.org/</dc:title>
     </cc:Agent>
    </dc:creator>
   </cc:Work>
  </rdf:RDF>
 </metadata>
 <defs>
  <style type="text/css">*{stroke-linejoin: round; stroke-linecap: butt}</style>
 </defs>
 <g id="figure_1">
  <g id="patch_1">
   <path d="M 0 205.521896 
L 297.730295 205.521896 
L 297.730295 0 
L 0 0 
z
" style="fill: #ffffff"/>
  </g>
  <g id="axes_1">
   <g id="patch_2">
    <path d="M 37.8925 170.554396 
L 290.530295 170.554396 
L 290.530295 22.132349 
L 37.8925 22.132349 
z
" style="fill: #ffffff"/>
   </g>
   <g id="matplotlib.axis_1">
    <g id="xtick_1">
     <g id="line2d_1">
      <path d="M 41.736946 170.554396 
L 41.736946 22.132349 
" clip-path="url(#p12be6ba213)" style="fill: none; stroke: #d8d8d8; stroke-opacity: 0.8; stroke-width: 0.4; stroke-linecap: square"/>
     </g>
     <g id="line2d_2">
      <defs>
       <path id="mbae5c83993" d="M 0 0 
L 0 3.5 
" style="stroke: #000000; stroke-width: 0.8"/>
      </defs>
      <g>
       <use xlink:href="#mbae5c83993" x="41.736946" y="170.554396" style="stroke: #000000; stroke-width: 0.8"/>
      </g>
     </g>
     <g id="text_1">
      <text style="font: 8px 'Microsoft YaHei', 'SimHei', 'SimSun', 'Arial', 'DejaVu Sans', sans-serif; text-anchor: middle" x="41.736946" y="183.949396" transform="rotate(-0 41.736946 183.949396)">20</text>
     </g>
    </g>
    <g id="xtick_2">
     <g id="line2d_3">
      <path d="M 81.900405 170.554396 
L 81.900405 22.132349 
" clip-path="url(#p12be6ba213)" style="fill: none; stroke: #d8d8d8; stroke-opacity: 0.8; stroke-width: 0.4; stroke-linecap: square"/>
     </g>
     <g id="line2d_4">
      <g>
       <use xlink:href="#mbae5c83993" x="81.900405" y="170.554396" style="stroke: #000000; stroke-width: 0.8"/>
      </g>
     </g>
     <g id="text_2">
      <text style="font: 8px 'Microsoft YaHei', 'SimHei', 'SimSun', 'Arial', 'DejaVu Sans', sans-serif; text-anchor: middle" x="81.900405" y="183.949396" transform="rotate(-0 81.900405 183.949396)">30</text>
     </g>
    </g>
    <g id="xtick_3">
     <g id="line2d_5">
      <path d="M 122.063864 170.554396 
L 122.063864 22.132349 
" clip-path="url(#p12be6ba213)" style="fill: none; stroke: #d8d8d8; stroke-opacity: 0.8; stroke-width: 0.4; stroke-linecap: square"/>
     </g>
     <g id="line2d_6">
      <g>
       <use xlink:href="#mbae5c83993" x="122.063864" y="170.554396" style="stroke: #000000; stroke-width: 0.8"/>
      </g>
     </g>
     <g id="text_3">
      <text style="font: 8px 'Microsoft YaHei', 'SimHei', 'SimSun', 'Arial', 'DejaVu Sans', sans-serif; text-anchor: middle" x="122.063864" y="183.949396" transform="rotate(-0 122.063864 183.949396)">40</text>
     </g>
    </g>
    <g id="xtick_4">
     <g id="line2d_7">
      <path d="M 162.227323 170.554396 
L 162.227323 22.132349 
" clip-path="url(#p12be6ba213)" style="fill: none; stroke: #d8d8d8; stroke-opacity: 0.8; stroke-width: 0.4; stroke-linecap: square"/>
     </g>
     <g id="line2d_8">
      <g>
       <use xlink:href="#mbae5c83993" x="162.227323" y="170.554396" style="stroke: #000000; stroke-width: 0.8"/>
      </g>
     </g>
     <g id="text_4">
      <text style="font: 8px 'Microsoft YaHei', 'SimHei', 'SimSun', 'Arial', 'DejaVu Sans', sans-serif; text-anchor: middle" x="162.227323" y="183.949396" transform="rotate(-0 162.227323 183.949396)">50</text>
     </g>
    </g>
    <g id="xtick_5">
     <g id="line2d_9">
      <path d="M 202.390782 170.554396 
L 202.390782 22.132349 
" clip-path="url(#p12be6ba213)" style="fill: none; stroke: #d8d8d8; stroke-opacity: 0.8; stroke-width: 0.4; stroke-linecap: square"/>
     </g>
     <g id="line2d_10">
      <g>
       <use xlink:href="#mbae5c83993" x="202.390782" y="170.554396" style="stroke: #000000; stroke-width: 0.8"/>
      </g>
     </g>
     <g id="text_5">
      <text style="font: 8px 'Microsoft YaHei', 'SimHei', 'SimSun', 'Arial', 'DejaVu Sans', sans-serif; text-anchor: middle" x="202.390782" y="183.949396" transform="rotate(-0 202.390782 183.949396)">60</text>
     </g>
    </g>
    <g id="xtick_6">
     <g id="line2d_11">
      <path d="M 242.55424 170.554396 
L 242.55424 22.132349 
" clip-path="url(#p12be6ba213)" style="fill: none; stroke: #d8d8d8; stroke-opacity: 0.8; stroke-width: 0.4; stroke-linecap: square"/>
     </g>
     <g id="line2d_12">
      <g>
       <use xlink:href="#mbae5c83993" x="242.55424" y="170.554396" style="stroke: #000000; stroke-width: 0.8"/>
      </g>
     </g>
     <g id="text_6">
      <text style="font: 8px 'Microsoft YaHei', 'SimHei', 'SimSun', 'Arial', 'DejaVu Sans', sans-serif; text-anchor: middle" x="242.55424" y="183.949396" transform="rotate(-0 242.55424 183.949396)">70</text>
     </g>
    </g>
    <g id="xtick_7">
     <g id="line2d_13">
      <path d="M 282.717699 170.554396 
L 282.717699 22.132349 
" clip-path="url(#p12be6ba213)" style="fill: none; stroke: #d8d8d8; stroke-opacity: 0.8; stroke-width: 0.4; stroke-linecap: square"/>
     </g>
     <g id="line2d_14">
      <g>
       <use xlink:href="#mbae5c83993" x="282.717699" y="170.554396" style="stroke: #000000; stroke-width: 0.8"/>
      </g>
     </g>
     <g id="text_7">
      <text style="font: 8px 'Microsoft YaHei', 'SimHei', 'SimSun', 'Arial', 'DejaVu Sans', sans-serif; text-anchor: middle" x="282.717699" y="183.949396" transform="rotate(-0 282.717699 183.949396)">80</text>
     </g>
    </g>
    <g id="text_8">
     <text style="font: 8px 'Microsoft YaHei', 'SimHei', 'SimSun', 'Arial', 'DejaVu Sans', sans-serif; text-anchor: middle" x="164.211398" y="196.333146" transform="rotate(-0 164.211398 196.333146)">预测速度 (km/h)</text>
    </g>
   </g>
   <g id="matplotlib.axis_2">
    <g id="ytick_1">
     <g id="line2d_15">
      <path d="M 37.8925 163.860116 
L 290.530295 163.860116 
" clip-path="url(#p12be6ba213)" style="fill: none; stroke: #d8d8d8; stroke-opacity: 0.8; stroke-width: 0.4; stroke-linecap: square"/>
     </g>
     <g id="line2d_16">
      <defs>
       <path id="m8358101937" d="M 0 0 
L -3.5 0 
" style="stroke: #000000; stroke-width: 0.8"/>
      </defs>
      <g>
       <use xlink:href="#m8358101937" x="37.8925" y="163.860116" style="stroke: #000000; stroke-width: 0.8"/>
      </g>
     </g>
     <g id="text_9">
      <text style="font: 8px 'Microsoft YaHei', 'SimHei', 'SimSun', 'Arial', 'DejaVu Sans', sans-serif; text-anchor: end" x="30.8925" y="167.057616" transform="rotate(-0 30.8925 167.057616)">0.0</text>
     </g>
    </g>
    <g id="ytick_2">
     <g id="line2d_17">
      <path d="M 37.8925 136.863854 
L 290.530295 136.863854 
" clip-path="url(#p12be6ba213)" style="fill: none; stroke: #d8d8d8; stroke-opacity: 0.8; stroke-width: 0.4; stroke-linecap: square"/>
     </g>
     <g id="line2d_18">
      <g>
       <use xlink:href="#m8358101937" x="37.8925" y="136.863854" style="stroke: #000000; stroke-width: 0.8"/>
      </g>
     </g>
     <g id="text_10">
      <text style="font: 8px 'Microsoft YaHei', 'SimHei', 'SimSun', 'Arial', 'DejaVu Sans', sans-serif; text-anchor: end" x="30.8925" y="140.061354" transform="rotate(-0 30.8925 140.061354)">0.2</text>
     </g>
    </g>
    <g id="ytick_3">
     <g id="line2d_19">
      <path d="M 37.8925 109.867592 
L 290.530295 109.867592 
" clip-path="url(#p12be6ba213)" style="fill: none; stroke: #d8d8d8; stroke-opacity: 0.8; stroke-width: 0.4; stroke-linecap: square"/>
     </g>
     <g id="line2d_20">
      <g>
       <use xlink:href="#m8358101937" x="37.8925" y="109.867592" style="stroke: #000000; stroke-width: 0.8"/>
      </g>
     </g>
     <g id="text_11">
      <text style="font: 8px 'Microsoft YaHei', 'SimHei', 'SimSun', 'Arial', 'DejaVu Sans', sans-serif; text-anchor: end" x="30.8925" y="113.065092" transform="rotate(-0 30.8925 113.065092)">0.4</text>
     </g>
    </g>
    <g id="ytick_4">
     <g id="line2d_21">
      <path d="M 37.8925 82.87133 
L 290.530295 82.87133 
" clip-path="url(#p12be6ba213)" style="fill: none; stroke: #d8d8d8; stroke-opacity: 0.8; stroke-width: 0.4; stroke-linecap: square"/>
     </g>
     <g id="line2d_22">
      <g>
       <use xlink:href="#m8358101937" x="37.8925" y="82.87133" style="stroke: #000000; stroke-width: 0.8"/>
      </g>
     </g>
     <g id="text_12">
      <text style="font: 8px 'Microsoft YaHei', 'SimHei', 'SimSun', 'Arial', 'DejaVu Sans', sans-serif; text-anchor: end" x="30.8925" y="86.06883" transform="rotate(-0 30.8925 86.06883)">0.6</text>
     </g>
    </g>
    <g id="ytick_5">
     <g id="line2d_23">
      <path d="M 37.8925 55.875068 
L 290.530295 55.875068 
" clip-path="url(#p12be6ba213)" style="fill: none; stroke: #d8d8d8; stroke-opacity: 0.8; stroke-width: 0.4; stroke-linecap: square"/>
     </g>
     <g id="line2d_24">
      <g>
       <use xlink:href="#m8358101937" x="37.8925" y="55.875068" style="stroke: #000000; stroke-width: 0.8"/>
      </g>
     </g>
     <g id="text_13">
      <text style="font: 8px 'Microsoft YaHei', 'SimHei', 'SimSun', 'Arial', 'DejaVu Sans', sans-serif; text-anchor: end" x="30.8925" y="59.072568" transform="rotate(-0 30.8925 59.072568)">0.8</text>
     </g>
    </g>
    <g id="ytick_6">
     <g id="line2d_25">
      <path d="M 37.8925 28.878806 
L 290.530295 28.878806 
" clip-path="url(#p12be6ba213)" style="fill: none; stroke: #d8d8d8; stroke-opacity: 0.8; stroke-width: 0.4; stroke-linecap: square"/>
     </g>
     <g id="line2d_26">
      <g>
       <use xlink:href="#m8358101937" x="37.8925" y="28.878806" style="stroke: #000000; stroke-width: 0.8"/>
      </g>
     </g>
     <g id="text_14">
      <text style="font: 8px 'Microsoft YaHei', 'SimHei', 'SimSun', 'Arial', 'DejaVu Sans', sans-serif; text-anchor: end" x="30.8925" y="32.076306" transform="rotate(-0 30.8925 32.076306)">1.0</text>
     </g>
    </g>
    <g id="text_15">
     <text style="font: 8px 'Microsoft YaHei', 'SimHei', 'SimSun', 'Arial', 'DejaVu Sans', sans-serif; text-anchor: middle" x="13.595" y="96.343373" transform="rotate(-90 13.595 96.343373)">累计概率</text>
    </g>
   </g>
   <g id="line2d_27">
    <path d="M 49.376036 163.807939 
L 49.376036 163.755763 
L 49.805785 163.599232 
L 49.805785 163.547056 
L 61.96728 163.338349 
L 114.248055 163.181818 
L 120.473391 163.025288 
L 120.473391 162.973111 
L 122.734594 162.816581 
L 122.835002 162.66005 
L 124.248756 162.50352 
L 124.325067 162.34699 
L 125.24481 162.19046 
L 125.309071 162.033929 
L 127.216836 161.877399 
L 127.216836 161.825222 
L 127.955843 161.668692 
L 127.955843 161.564338 
L 128.506083 161.407808 
L 128.506083 161.251278 
L 134.201261 160.990394 
L 134.201261 160.938217 
L 138.683503 160.72951 
L 138.683503 160.677333 
L 140.832248 160.520803 
L 141.201752 160.416449 
L 142.908699 160.259919 
L 142.944846 160.155565 
L 143.294268 159.842505 
L 143.294268 159.790328 
L 143.414759 159.738151 
L 147.708232 159.529444 
L 147.712249 159.477267 
L 148.158063 159.320737 
L 148.210276 159.26856 
L 148.808711 159.059853 
L 148.808711 159.007676 
L 151.025734 158.798969 
L 152.62424 158.485909 
L 152.62424 158.433732 
L 153.732751 158.172848 
L 153.732751 158.016318 
L 155.608385 157.859787 
L 155.608385 157.755434 
L 155.933709 157.598904 
L 156.263049 157.390196 
L 156.267065 157.285843 
L 156.841403 157.129313 
L 156.961893 157.077136 
L 157.913767 156.920605 
L 157.913767 156.764075 
L 158.050323 156.607545 
L 158.062372 156.451015 
L 158.227042 156.294484 
L 158.283271 156.085777 
L 160.299477 155.772716 
L 160.359722 155.511833 
L 161.09873 155.303126 
L 161.279465 154.937888 
L 162.661088 154.781358 
L 162.661088 154.729181 
L 162.809693 154.572651 
L 163.367965 154.311767 
L 163.532635 154.155237 
L 163.564766 153.998706 
L 163.910172 153.842176 
L 163.938286 153.581292 
L 164.038695 153.424762 
L 164.074842 153.372585 
L 165.159255 153.216055 
L 165.231549 153.111701 
L 165.412285 152.955171 
L 166.76981 152.79864 
L 166.862186 152.381226 
L 167.299968 152.015989 
L 167.368246 151.546398 
L 167.508818 151.389868 
L 167.508818 151.337691 
L 167.76988 151.181161 
L 167.866272 150.972453 
L 168.60528 150.815923 
L 168.60528 150.71157 
L 169.079209 150.555039 
L 169.336255 149.772388 
L 169.444696 148.833206 
L 169.508958 148.572322 
L 169.609367 147.737494 
L 170.079279 147.424433 
L 170.48493 147.267903 
L 170.589355 146.798312 
L 170.882548 146.641781 
L 170.94681 146.276544 
L 171.039186 146.120014 
L 171.039186 146.067837 
L 171.460902 145.85913 
L 171.609507 145.389539 
L 171.898684 144.919948 
L 171.995076 144.606887 
L 172.460972 144.450357 
L 172.701953 144.293827 
L 172.942934 143.093761 
L 173.183914 142.93723 
L 173.216045 142.728523 
L 173.384732 142.519816 
L 173.48514 142.206756 
L 173.673909 142.050225 
L 173.754235 141.424104 
L 173.894808 141.267574 
L 173.938987 141.111043 
L 174.292426 140.902336 
L 174.356687 140.745806 
L 174.380785 140.589276 
L 174.469145 140.432745 
L 174.477178 140.224038 
L 174.862747 140.067508 
L 174.943074 139.806624 
L 175.123809 139.597917 
L 175.188071 139.441387 
L 175.240283 139.128326 
L 175.312578 138.971796 
L 175.376839 138.450028 
L 175.505362 138.293498 
L 175.545526 138.084791 
L 175.629869 137.92826 
L 175.754376 137.302139 
L 175.882899 137.145609 
L 175.971258 136.571664 
L 176.115847 136.415134 
L 176.147978 136.31078 
L 176.413056 136.15425 
L 176.513465 136.049896 
L 176.57371 135.893366 
L 176.629939 135.789013 
L 176.694201 135.632482 
L 176.802642 134.6933 
L 176.891002 134.38024 
L 177.07977 134.015002 
L 177.421159 133.754118 
L 177.445257 133.493235 
L 177.577797 133.336704 
L 177.66214 133.023644 
L 177.790663 132.606229 
L 177.879023 131.980108 
L 178.003529 131.823578 
L 178.027627 131.719224 
L 178.216396 131.562694 
L 178.37705 130.675689 
L 178.465409 130.519159 
L 178.581883 130.414805 
L 179.007616 129.37127 
L 179.144172 129.214739 
L 179.224499 128.849502 
L 179.461463 128.484264 
L 179.469496 128.223381 
L 179.766705 128.06685 
L 179.82695 127.649436 
L 179.82695 127.597259 
L 180.136209 127.388552 
L 180.240634 126.605901 
L 180.324977 126.031956 
L 180.582023 125.875426 
L 180.66235 125.458012 
L 180.847102 125.301481 
L 180.855135 125.092774 
L 181.562012 124.727537 
L 182.060039 124.257946 
L 182.16848 123.736178 
L 182.325118 123.05788 
L 182.413477 122.90135 
L 182.433559 122.744819 
L 182.718719 122.588289 
L 182.827161 122.431759 
L 182.971749 122.066521 
L 183.060109 121.544754 
L 183.084207 121.336047 
L 183.192648 121.179516 
L 183.309122 120.344688 
L 183.449694 120.188158 
L 183.461743 119.927274 
L 183.570185 119.770743 
L 183.967803 119.092445 
L 184.064195 118.361971 
L 184.281078 117.631496 
L 184.37747 117.422789 
L 184.449765 117.214082 
L 184.546157 116.640137 
L 184.622467 116.483607 
L 184.714843 115.909662 
L 185.09238 115.700955 
L 185.09238 115.544425 
L 185.297214 115.387895 
L 185.297214 115.335718 
L 185.42172 115.179187 
L 185.526145 114.918304 
L 185.606472 114.500889 
L 185.67475 114.344359 
L 185.67475 114.292182 
L 185.807289 114.135652 
L 185.843437 113.666061 
L 186.024172 112.413818 
L 186.080401 112.205111 
L 186.385643 110.848515 
L 186.494085 110.587631 
L 186.626624 109.96151 
L 186.682853 109.857157 
L 186.80736 109.64845 
L 187.008177 108.813621 
L 187.072438 108.604914 
L 187.148749 107.822263 
L 187.269239 107.561379 
L 187.594563 106.622197 
L 187.703005 106.152606 
L 187.791364 105.943899 
L 187.80743 105.787368 
L 187.911855 105.630838 
L 187.988165 105.161247 
L 188.128737 104.95254 
L 188.22513 104.587303 
L 188.397833 104.430772 
L 188.46611 104.326419 
L 188.59865 104.117712 
L 188.59865 104.065535 
L 188.791434 103.909005 
L 188.875778 103.439414 
L 189.000284 103.282883 
L 189.104709 102.708939 
L 189.193069 102.343701 
L 189.309543 102.187171 
L 189.34569 102.082818 
L 189.450115 101.926287 
L 189.578638 101.456696 
L 190.056583 100.517514 
L 190.092731 100.360984 
L 190.361826 100.204454 
L 190.454202 99.78704 
L 190.64297 99.630509 
L 190.739362 99.317449 
L 190.839771 99.108741 
L 190.871902 98.795681 
L 190.908049 98.48262 
L 191.249438 98.32609 
L 191.341814 97.804322 
L 191.442223 97.491262 
L 191.546648 97.021671 
L 191.586811 96.812963 
L 191.803694 96.656433 
L 191.867955 96.134665 
L 191.928201 95.978135 
L 192.036642 95.09113 
L 192.18123 94.204125 
L 192.22541 93.995418 
L 192.321802 93.369297 
L 192.623028 93.056236 
L 192.719421 92.690998 
L 192.755568 92.482291 
L 192.864009 92.064877 
L 192.944336 91.803993 
L 193.044745 90.447397 
L 193.590968 88.516857 
L 193.77572 88.30815 
L 193.868096 87.890735 
L 194.14924 87.734205 
L 194.249648 87.264614 
L 194.317926 87.108084 
L 194.321943 87.00373 
L 194.546858 86.8472 
L 194.546858 86.795023 
L 194.699479 86.638493 
L 194.868166 86.168902 
L 195.02882 86.012372 
L 195.137261 85.855841 
L 195.169392 85.647134 
L 195.486683 85.490604 
L 195.52283 85.07319 
L 195.647337 84.916659 
L 195.715615 84.760129 
L 195.908399 84.603599 
L 195.908399 84.551422 
L 196.044955 84.394892 
L 196.466671 84.029654 
L 196.571096 83.61224 
L 196.86429 83.45571 
L 196.86429 83.403533 
L 197.000845 83.247003 
L 197.113303 82.933942 
L 197.221744 82.568705 
L 197.245843 82.516528 
L 197.494856 82.359997 
L 197.563134 81.942583 
L 197.671575 81.733876 
L 197.767967 81.264285 
L 197.796082 80.951225 
L 197.868376 80.638164 
L 197.936654 80.429457 
L 197.936654 80.325103 
L 198.157553 80.168573 
L 198.201733 79.803336 
L 198.362387 79.646805 
L 198.478861 79.229391 
L 198.780087 79.020684 
L 198.86443 78.290209 
L 199.025084 78.081502 
L 199.11746 77.664088 
L 199.153607 77.351027 
L 199.197787 76.881436 
L 199.394588 76.672729 
L 199.49098 76.098785 
L 199.731961 75.52484 
L 199.948843 75.36831 
L 200.045236 75.055249 
L 200.197857 74.794365 
L 200.342445 74.637835 
L 200.422772 73.90736 
L 200.639655 73.646476 
L 200.752112 73.385593 
L 200.900717 73.229062 
L 200.964979 73.020355 
L 201.02924 72.811648 
L 201.109567 71.820289 
L 201.169812 71.663759 
L 201.266205 71.141991 
L 201.647758 70.724577 
L 201.736117 70.307163 
L 201.82046 70.046279 
L 201.989147 68.74186 
L 202.133735 68.480976 
L 202.226111 67.698324 
L 202.350618 67.541794 
L 202.406847 67.176557 
L 202.53537 67.020026 
L 202.62373 66.602612 
L 203.025364 66.341728 
L 203.587653 65.141663 
L 203.671996 64.985132 
L 203.780437 64.828602 
L 203.812568 64.515541 
L 203.921009 64.098127 
L 204.145925 63.837243 
L 204.25035 63.315476 
L 204.519445 63.002415 
L 204.57969 62.167587 
L 204.784524 62.011056 
L 205.081733 61.228405 
L 205.266485 60.863167 
L 205.374927 60.706637 
L 205.374927 60.65446 
L 205.700251 60.49793 
L 205.700251 60.393576 
L 205.949264 60.237046 
L 206.009509 60.132692 
L 206.117951 59.923985 
L 206.138032 59.871809 
L 206.29467 59.715278 
L 206.29467 59.663101 
L 206.644092 59.454394 
L 206.644092 59.402218 
L 206.885073 59.245687 
L 206.885073 59.141334 
L 207.158184 58.984803 
L 207.407198 58.045621 
L 207.467443 57.576031 
L 207.527688 57.4195 
L 207.567851 57.158616 
L 207.873094 57.002086 
L 207.981535 56.741202 
L 208.057846 56.480318 
L 208.198418 56.167258 
L 208.198418 56.010727 
L 208.684396 55.854197 
L 208.684396 55.80202 
L 209.29488 55.541136 
L 209.367174 55.175899 
L 209.853152 55.019369 
L 209.977659 54.654131 
L 210.154378 54.445424 
L 210.455604 54.288894 
L 210.467653 53.975833 
L 210.700601 53.767126 
L 210.720683 53.245358 
L 210.813059 53.088828 
L 210.813059 53.036651 
L 211.327151 52.880121 
L 211.411494 52.723591 
L 211.616328 52.56706 
L 211.660508 52.358353 
L 211.772966 52.149646 
L 211.853293 51.993116 
L 211.941652 51.627878 
L 212.26296 51.471348 
L 212.367385 51.210464 
L 212.688692 49.801691 
L 212.785085 49.592984 
L 212.865412 49.436454 
L 212.905575 49.3321 
L 213.367455 49.17557 
L 213.367455 49.123393 
L 213.487945 48.966863 
L 213.576305 48.705979 
L 214.070315 48.497272 
L 214.295231 48.079858 
L 214.56031 47.923328 
L 214.644653 47.714621 
L 214.825388 47.55809 
L 214.853503 47.40156 
L 215.034238 47.24503 
L 215.126614 46.984146 
L 215.556363 45.575373 
L 215.556363 45.523196 
L 215.672837 45.366666 
L 215.676854 45.001428 
L 216.170864 44.844898 
L 216.170864 44.792721 
L 216.580532 44.584014 
L 216.616679 44.427484 
L 216.817496 44.218777 
L 216.821512 43.957893 
L 217.146836 43.853539 
L 217.576585 43.697009 
L 217.664945 43.436125 
L 217.833632 43.018711 
L 218.183054 42.862181 
L 218.235266 42.757827 
L 219.179107 42.601297 
L 219.179107 42.54912 
L 220.018524 42.39259 
L 220.199259 42.236059 
L 220.199259 42.183883 
L 221.114986 42.027352 
L 221.114986 41.922999 
L 221.753585 41.766468 
L 221.998582 41.296877 
L 221.998582 41.140347 
L 222.135138 40.983817 
L 222.243579 40.409872 
L 222.251612 40.305519 
L 222.516691 40.148988 
L 222.57292 39.835928 
L 222.773737 39.679398 
L 222.882178 39.31416 
L 222.886195 39.105453 
L 223.087012 38.948923 
L 223.171355 38.635862 
L 223.239633 38.479332 
L 223.239633 38.427155 
L 223.801922 38.270625 
L 223.866183 38.009741 
L 223.918396 37.801034 
L 224.279867 36.653145 
L 224.854204 36.496614 
L 224.854204 36.444438 
L 225.27592 36.287907 
L 225.291986 36.027023 
L 226.436644 35.870493 
L 226.436644 35.818316 
L 227.733924 35.609609 
L 227.733924 35.348725 
L 229.513165 35.192195 
L 229.513165 35.140018 
L 229.778244 34.983488 
L 229.886686 34.879134 
L 230.521268 34.722604 
L 230.521268 34.670427 
L 231.147818 34.513897 
L 231.187982 34.14866 
L 231.388799 33.992129 
L 231.388799 33.939953 
L 232.039447 33.783422 
L 232.119774 33.366008 
L 232.344689 33.209478 
L 232.344689 33.157301 
L 232.842716 32.896417 
L 233.00337 32.739887 
L 233.015419 32.583356 
L 233.46525 32.426826 
L 233.525495 32.218119 
L 234.051636 32.061589 
L 234.059669 31.905058 
L 235.04769 31.696351 
L 235.04769 31.591998 
L 238.112162 31.22676 
L 238.112162 31.174584 
L 238.429453 31.018053 
L 238.429453 30.965877 
L 238.959611 30.809346 
L 239.489769 30.652816 
L 239.489769 30.600639 
L 241.196716 30.444109 
L 241.196716 30.391932 
L 241.771053 30.235402 
L 248.570727 30.026695 
L 248.570727 29.974518 
L 248.871953 29.817988 
L 248.871953 29.765811 
L 249.735467 29.60928 
L 249.735467 29.557104 
L 251.382169 29.400573 
L 251.382169 29.348397 
L 252.301912 29.139689 
L 262.390973 28.983159 
L 279.046759 28.878806 
L 279.046759 28.878806 
" clip-path="url(#p12be6ba213)" style="fill: none; stroke: #0f4d92; stroke-width: 1.4; stroke-linecap: square"/>
   </g>
   <g id="line2d_28">
    <path d="M 162.227323 170.554396 
L 162.227323 22.132349 
" clip-path="url(#p12be6ba213)" style="fill: none; stroke-dasharray: 3.33,1.44; stroke-dashoffset: 0; stroke: #b64342; stroke-width: 0.9"/>
   </g>
   <g id="line2d_29">
    <path d="M 37.8925 154.937888 
L 290.530295 154.937888 
" clip-path="url(#p12be6ba213)" style="fill: none; stroke-dasharray: 0.9,1.485; stroke-dashoffset: 0; stroke: #b64342; stroke-width: 0.9"/>
   </g>
   <g id="patch_3">
    <path d="M 37.8925 170.554396 
L 37.8925 22.132349 
" style="fill: none; stroke: #000000; stroke-width: 0.8; stroke-linejoin: miter; stroke-linecap: square"/>
   </g>
   <g id="patch_4">
    <path d="M 37.8925 170.554396 
L 290.530295 170.554396 
" style="fill: none; stroke: #000000; stroke-width: 0.8; stroke-linejoin: miter; stroke-linecap: square"/>
   </g>
   <g id="text_16">
    <text style="fill: #272727; font: 700 10px 'Microsoft YaHei', 'SimHei', 'SimSun', 'Arial', 'DejaVu Sans', sans-serif; text-anchor: start" x="17.681476" y="15.19375" transform="rotate(-0 17.681476 15.19375)">a</text>
   </g>
   <g id="text_17">
    <text style="font: 7px 'Microsoft YaHei', 'SimHei', 'SimSun', 'Arial', 'DejaVu Sans', sans-serif; text-anchor: start" x="50.52439" y="39.942995" transform="rotate(-0 50.52439 39.942995)">P(v &lt; 50) = 6.6%</text>
   </g>
  </g>
 </g>
 <defs>
  <clipPath id="p12be6ba213">
   <rect x="37.8925" y="22.132349" width="252.637795" height="148.422047"/>
  </clipPath>
 </defs>
</svg>
