<?xml version="1.0" encoding="utf-8" standalone="no"?>
<!DOCTYPE svg PUBLIC "-//W3C//DTD SVG 1.1//EN"
  "http://www.w3.org/Graphics/SVG/1.1/DTD/svg11.dtd">
<svg xmlns:xlink="http://www.w3.org/1999/xlink" width="415.387783pt" height="149.725984pt" viewBox="0 0 415.387783 149.725984" xmlns="http://www.w3.org/2000/svg" version="1.1">
 <metadata>
  <rdf:RDF xmlns:dc="http://purl.org/dc/elements/1.1/" xmlns:cc="http://creativecommons.org/ns#" xmlns:rdf="http://www.w3.org/1999/02/22-rdf-syntax-ns#">
   <cc:Work>
    <dc:type rdf:resource="http://purl.org/dc/dcmitype/StillImage"/>
    <dc:date>2026-05-03T14:59:18.235227</dc:date>
    <dc:format>image/svg+xml</dc:format>
    <dc:creator>
     <cc:Agent>
      <dc:title>Matplotlib v3.7.5, https://matplotlib.org/</dc:title>
     </cc:Agent>
    </dc:creator>
   </cc:Work>
  </rdf:RDF>
 </metadata>
 <defs>
  <style type="text/css">*{stroke-linejoin: round; stroke-linecap: butt}</style>
 </defs>
 <g id="figure_1">
  <g id="patch_1">
   <path d="M 0 149.725984 
L 415.387783 149.725984 
L 415.387783 0 
L 0 0 
z
" style="fill: #ffffff"/>
  </g>
  <g id="axes_1">
   <g id="patch_2">
    <path d="M 7.2 142.525984 
L 402.633071 142.525984 
L 402.633071 7.2 
L 7.2 7.2 
z
" style="fill: #ffffff"/>
   </g>
   <g id="patch_3">
    <path d="M 33.298583 87.312983 
L 90.240945 87.312983 
Q 97.35874 87.312983 97.35874 84.877115 
L 97.35874 54.022791 
Q 97.35874 51.586923 90.240945 51.586923 
L 33.298583 51.586923 
Q 26.180787 51.586923 26.180787 54.022791 
L 26.180787 84.877115 
Q 26.180787 87.312983 33.298583 87.312983 
z
" clip-path="url(#p975ad7f2d9)" style="fill: #b4c0e4; stroke: #ffffff; stroke-width: 0.8; stroke-linejoin: miter"/>
   </g>
   <g id="patch_4">
    <path d="M 96.589982 69.449953 
Q 99.926636 69.449953 102.145257 69.449953 
" clip-path="url(#p975ad7f2d9)" style="fill: none; stroke: #4d4d4d; stroke-linecap: round"/>
    <path d="M 98.945257 67.849953 
L 102.145257 69.449953 
L 98.945257 71.049953 
z
" clip-path="url(#p975ad7f2d9)" style="fill: #4d4d4d; stroke: #4d4d4d; stroke-linecap: round"/>
   </g>
   <g id="patch_5">
    <path d="M 112.385197 87.312983 
L 169.327559 87.312983 
Q 176.445354 87.312983 176.445354 84.877115 
L 176.445354 54.022791 
Q 176.445354 51.586923 169.327559 51.586923 
L 112.385197 51.586923 
Q 105.267402 51.586923 105.267402 54.022791 
L 105.267402 84.877115 
Q 105.267402 87.312983 112.385197 87.312983 
z
" clip-path="url(#p975ad7f2d9)" style="fill: #d8d8f0; stroke: #ffffff; stroke-width: 0.8; stroke-linejoin: miter"/>
   </g>
   <g id="patch_6">
    <path d="M 175.676596 69.449953 
Q 179.01325 69.449953 181.231871 69.449953 
" clip-path="url(#p975ad7f2d9)" style="fill: none; stroke: #4d4d4d; stroke-linecap: round"/>
    <path d="M 178.031871 67.849953 
L 181.231871 69.449953 
L 178.031871 71.049953 
z
" clip-path="url(#p975ad7f2d9)" style="fill: #4d4d4d; stroke: #4d4d4d; stroke-linecap: round"/>
   </g>
   <g id="patch_7">
    <path d="M 191.471811 87.312983 
L 248.414173 87.312983 
Q 255.531969 87.312983 255.531969 84.877115 
L 255.531969 54.022791 
Q 255.531969 51.586923 248.414173 51.586923 
L 191.471811 51.586923 
Q 184.354016 51.586923 184.354016 54.022791 
L 184.354016 84.877115 
Q 184.354016 87.312983 191.471811 87.312983 
z
" clip-path="url(#p975ad7f2d9)" style="fill: #77d7d1; stroke: #ffffff; stroke-width: 0.8; stroke-linejoin: miter"/>
   </g>
   <g id="patch_8">
    <path d="M 254.76321 69.449953 
Q 258.099865 69.449953 260.318485 69.449953 
" clip-path="url(#p975ad7f2d9)" style="fill: none; stroke: #4d4d4d; stroke-linecap: round"/>
    <path d="M 257.118485 67.849953 
L 260.318485 69.449953 
L 257.118485 71.049953 
z
" clip-path="url(#p975ad7f2d9)" style="fill: #4d4d4d; stroke: #4d4d4d; stroke-linecap: round"/>
   </g>
   <g id="patch_9">
    <path d="M 270.558425 87.312983 
L 327.500787 87.312983 
Q 334.618583 87.312983 334.618583 84.877115 
L 334.618583 54.022791 
Q 334.618583 51.586923 327.500787 51.586923 
L 270.558425 51.586923 
Q 263.44063 51.586923 263.44063 54.022791 
L 263.44063 84.877115 
Q 263.44063 87.312983 270.558425 87.312983 
z
" clip-path="url(#p975ad7f2d9)" style="fill: #f0e0d0; stroke: #ffffff; stroke-width: 0.8; stroke-linejoin: miter"/>
   </g>
   <g id="patch_10">
    <path d="M 333.849824 69.449953 
Q 337.186479 69.449953 339.405099 69.449953 
" clip-path="url(#p975ad7f2d9)" style="fill: none; stroke: #4d4d4d; stroke-linecap: round"/>
    <path d="M 336.205099 67.849953 
L 339.405099 69.449953 
L 336.205099 71.049953 
z
" clip-path="url(#p975ad7f2d9)" style="fill: #4d4d4d; stroke: #4d4d4d; stroke-linecap: round"/>
   </g>
   <g id="patch_11">
    <path d="M 349.645039 87.312983 
L 406.587402 87.312983 
Q 413.705197 87.312983 413.705197 84.877115 
L 413.705197 54.022791 
Q 413.705197 51.586923 406.587402 51.586923 
L 349.645039 51.586923 
Q 342.527244 51.586923 342.527244 54.022791 
L 342.527244 84.877115 
Q 342.527244 87.312983 349.645039 87.312983 
z
" clip-path="url(#p975ad7f2d9)" style="fill: #e9a6a1; stroke: #ffffff; stroke-width: 0.8; stroke-linejoin: miter"/>
   </g>
   <g id="matplotlib.axis_1"/>
   <g id="matplotlib.axis_2"/>
   <g id="line2d_1">
    <path d="M 30.925984 96.51515 
L 408.96 96.51515 
" clip-path="url(#p975ad7f2d9)" style="fill: none; stroke: #d8d8d8; stroke-width: 0.8; stroke-linecap: square"/>
   </g>
   <g id="text_1">
    <text style="font: 700 11px 'Microsoft YaHei', 'SimHei', 'SimSun', 'Arial', 'DejaVu Sans', sans-serif; text-anchor: start" x="15.108661" y="22.759424" transform="rotate(-0 15.108661 22.759424)">路径规划实验对比流程</text>
   </g>
   <g id="text_2">
    <text style="fill: #4d4d4d; font: 7.5px 'Microsoft YaHei', 'SimHei', 'SimSun', 'Arial', 'DejaVu Sans', sans-serif; text-anchor: start" x="15.108661" y="28.169061" transform="rotate(-0 15.108661 28.169061)">A controlled comparison of static, prediction-aware, and time-dependent routing</text>
   </g>
   <g id="text_3">
    <text style="fill: #272727; font: 7px 'Microsoft YaHei', 'SimHei', 'SimSun', 'Arial', 'DejaVu Sans', sans-serif; text-anchor: middle" x="61.769764" y="71.377687" transform="rotate(-0 61.769764 71.377687)">统一OD输入</text>
   </g>
   <g id="text_4">
    <text style="fill: #272727; font: 7px 'Microsoft YaHei', 'SimHei', 'SimSun', 'Arial', 'DejaVu Sans', sans-serif; text-anchor: middle" x="140.856378" y="71.377687" transform="rotate(-0 140.856378 71.377687)">静态基线搜索</text>
   </g>
   <g id="text_5">
    <text style="fill: #272727; font: 7px 'Microsoft YaHei', 'SimHei', 'SimSun', 'Arial', 'DejaVu Sans', sans-serif; text-anchor: middle" x="219.942992" y="71.377687" transform="rotate(-0 219.942992 71.377687)">预测速度修正边权</text>
   </g>
   <g id="text_6">
    <text style="fill: #272727; font: 7px 'Microsoft YaHei', 'SimHei', 'SimSun', 'Arial', 'DejaVu Sans', sans-serif; text-anchor: middle" x="299.029606" y="71.377687" transform="rotate(-0 299.029606 71.377687)">时变A*搜索</text>
   </g>
   <g id="text_7">
    <text style="fill: #272727; font: 7px 'Microsoft YaHei', 'SimHei', 'SimSun', 'Arial', 'DejaVu Sans', sans-serif; text-anchor: middle" x="378.11622" y="71.377687" transform="rotate(-0 378.11622 71.377687)">距离 时间 耗时对比</text>
   </g>
   <g id="text_8">
    <text style="fill: #0f4d92; font: 7px 'Microsoft YaHei', 'SimHei', 'SimSun', 'Arial', 'DejaVu Sans', sans-serif; text-anchor: start" x="30.925984" y="107.341228" transform="rotate(-0 30.925984 107.341228)">data</text>
   </g>
   <g id="text_9">
    <text style="fill: #7c6ccf; font: 7px 'Microsoft YaHei', 'SimHei', 'SimSun', 'Arial', 'DejaVu Sans', sans-serif; text-anchor: start" x="129.784252" y="107.341228" transform="rotate(-0 129.784252 107.341228)">model</text>
   </g>
   <g id="text_10">
    <text style="fill: #42949e; font: 7px 'Microsoft YaHei', 'SimHei', 'SimSun', 'Arial', 'DejaVu Sans', sans-serif; text-anchor: start" x="224.688189" y="107.341228" transform="rotate(-0 224.688189 107.341228)">cost</text>
   </g>
   <g id="text_11">
    <text style="fill: #b64342; font: 7px 'Microsoft YaHei', 'SimHei', 'SimSun', 'Arial', 'DejaVu Sans', sans-serif; text-anchor: start" x="315.637795" y="107.341228" transform="rotate(-0 315.637795 107.341228)">validation</text>
   </g>
  </g>
 </g>
 <defs>
  <clipPath id="p975ad7f2d9">
   <rect x="7.2" y="7.2" width="395.433071" height="135.325984"/>
  </clipPath>
 </defs>
</svg>
