<svg xmlns="http://www.w3.org/2000/svg" width="1280" height="720" viewBox="0 0 1280 720">
  <defs>
    <style>.title{font:700 30px "Microsoft YaHei",Arial,sans-serif;fill:#172033}.layer{font:700 22px "Microsoft YaHei",Arial,sans-serif;fill:#172033}.h{font:700 18px "Microsoft YaHei",Arial,sans-serif;fill:#172033}.t{font:15px "Microsoft YaHei",Arial,sans-serif;fill:#344054}.band{rx:16;ry:16;stroke-width:2;fill:#fff}.box{rx:10;ry:10;stroke-width:1.8;fill:#fff}.blue{stroke:#2563eb;fill:#eff6ff}.green{stroke:#16a34a;fill:#f0fdf4}.orange{stroke:#dd6b20;fill:#fff7ed}.purple{stroke:#7c3aed;fill:#faf5ff}.gray{stroke:#64748b;fill:#f8fafc}.arrow{stroke:#263445;stroke-width:2.2;fill:none;marker-end:url(#m)}</style>
    <marker id="m" markerWidth="12" markerHeight="8" refX="11" refY="4" orient="auto"><path d="M0,0 L12,4 L0,8 Z" fill="#263445"/></marker>
  </defs>
  <rect width="1280" height="720" fill="#fff"/><text x="640" y="52" text-anchor="middle" class="title">图6-1 系统总体架构图</text>
  <rect x="70" y="95" width="1140" height="105" class="band green"/><text x="125" y="135" class="layer">用户交互层</text><rect x="310" y="120" width="210" height="55" class="box gray"/><text x="415" y="154" text-anchor="middle" class="h">前端地图页面</text><rect x="705" y="120" width="250" height="55" class="box gray"/><text x="830" y="154" text-anchor="middle" class="h">路径查询与状态展示</text>
  <rect x="70" y="235" width="1140" height="130" class="band blue"/><text x="125" y="276" class="layer">后端接口层</text><rect x="245" y="270" width="165" height="58" class="box blue"/><text x="327" y="304" text-anchor="middle" class="h">基础路由 API</text><rect x="455" y="270" width="165" height="58" class="box blue"/><text x="537" y="304" text-anchor="middle" class="h">交通预测 API</text><rect x="665" y="270" width="185" height="58" class="box blue"/><text x="757" y="304" text-anchor="middle" class="h">预测路径 API</text><rect x="895" y="270" width="190" height="58" class="box blue"/><text x="990" y="304" text-anchor="middle" class="h">路段状态 API</text>
  <rect x="70" y="400" width="1140" height="130" class="band orange"/><text x="125" y="442" class="layer">核心服务层</text><rect x="215" y="435" width="190" height="58" class="box orange"/><text x="310" y="469" text-anchor="middle" class="h">TrafficPredictionService</text><rect x="455" y="435" width="155" height="58" class="box orange"/><text x="532" y="469" text-anchor="middle" class="h">RouterService</text><rect x="660" y="435" width="210" height="58" class="box orange"/><text x="765" y="469" text-anchor="middle" class="h">PredictiveRouteService</text><rect x="920" y="435" width="205" height="58" class="box orange"/><text x="1022" y="469" text-anchor="middle" class="h">DynamicRouterService</text>
  <rect x="70" y="565" width="1140" height="95" class="band purple"/><text x="125" y="607" class="layer">数据与模型层</text><rect x="290" y="590" width="160" height="46" class="box purple"/><text x="370" y="618" text-anchor="middle" class="h">T-GCN 权重</text><rect x="500" y="590" width="190" height="46" class="box purple"/><text x="595" y="618" text-anchor="middle" class="h">312869 节点路网</text><rect x="740" y="590" width="190" height="46" class="box purple"/><text x="835" y="618" text-anchor="middle" class="h">2587 detector 结果</text>
  <path d="M415 175 L415 270" class="arrow"/><path d="M830 175 L990 270" class="arrow"/><path d="M537 328 L310 435" class="arrow"/><path d="M327 328 L532 435" class="arrow"/><path d="M757 328 L765 435" class="arrow"/><path d="M990 328 L1022 435" class="arrow"/><path d="M370 590 L310 493" class="arrow"/><path d="M595 590 L532 493" class="arrow"/><path d="M835 590 L765 493" class="arrow"/>
</svg>
